<svg id="Layer_1" data-name="Layer 1" xmlns="http://www.w3.org/2000/svg" viewBox="0 0 396.39 375.83"><defs><style>.cls-1{fill:#939598;}.cls-2{fill:#a7a9ac;}.cls-3{fill:#d1d3d4;}.cls-4{fill:#6d6e71;}.cls-5{fill:#82953a;}</style></defs><title>site 9</title><polygon class="cls-1" points="121.8 164.05 360.23 36.29 360.31 132.17 396.38 151.44 396.38 182.91 360.36 200.38 360.38 228.23 96.39 375.83 96.28 234.12 122.27 221.15 121.8 164.05"/><polygon class="cls-2" points="0 186.72 55.53 155.77 55.07 184.35 122.27 221.15 96.28 234.12 0 186.72"/><polygon class="cls-3" points="0.23 326.23 96.33 375.83 96.27 234.12 30.09 201.63 0.14 186.45 0.23 326.23"/><polygon class="cls-4" points="126.28 243 112.26 250.38 112.19 233.14 126.21 225.76 126.28 243"/><polygon class="cls-3" points="124.91 242.2 113.62 248.08 113.58 237.05 124.87 231.17 124.91 242.2"/><polygon class="cls-4" points="152.99 228.71 134.19 238.59 134.13 221.34 152.92 211.47 152.99 228.71"/><polygon class="cls-3" points="146.85 230.4 135.55 236.28 135.51 225.25 146.8 219.37 146.85 230.4"/><polygon class="cls-3" points="151.62 228.27 148.38 229.9 148.34 218.87 151.57 217.24 151.62 228.27"/><polygon class="cls-4" points="174.97 216.26 160.95 223.64 160.88 206.4 174.9 199.02 174.97 216.26"/><polygon class="cls-3" points="173.6 215.46 162.31 221.34 162.26 210.31 173.56 204.43 173.6 215.46"/><polygon class="cls-4" points="201.68 201.97 182.88 211.85 182.82 194.6 201.61 184.73 201.68 201.97"/><polygon class="cls-3" points="195.53 203.66 184.24 209.54 184.2 198.51 195.49 192.63 195.53 203.66"/><polygon class="cls-3" points="200.31 201.53 197.07 203.16 197.03 192.13 200.26 190.5 200.31 201.53"/><polygon class="cls-4" points="222.68 190.5 208.66 197.89 208.59 180.64 222.62 173.26 222.68 190.5"/><polygon class="cls-3" points="221.31 189.7 210.02 195.58 209.98 184.55 221.27 178.67 221.31 189.7"/><polygon class="cls-4" points="249.39 176.21 230.59 186.09 230.53 168.85 249.32 158.97 249.39 176.21"/><polygon class="cls-3" points="243.25 177.91 231.95 183.79 231.91 172.76 243.2 166.88 243.25 177.91"/><polygon class="cls-3" points="248.02 175.77 244.78 177.4 244.74 166.37 247.97 164.75 248.02 175.77"/><polygon class="cls-4" points="126.37 266.9 112.35 274.28 112.28 257.04 126.31 249.66 126.37 266.9"/><polygon class="cls-3" points="125 266.1 113.71 271.98 113.67 260.95 124.96 255.07 125 266.1"/><polygon class="cls-4" points="153.08 252.61 134.29 262.49 134.22 245.24 153.01 235.37 153.08 252.61"/><polygon class="cls-3" points="146.94 254.3 135.65 260.18 135.6 249.16 146.9 243.28 146.94 254.3"/><polygon class="cls-3" points="151.71 252.17 148.48 253.8 148.43 242.77 151.67 241.14 151.71 252.17"/><polygon class="cls-4" points="175.06 240.16 161.04 247.55 160.97 230.3 175 222.92 175.06 240.16"/><polygon class="cls-3" points="173.69 239.36 162.4 245.24 162.36 234.21 173.65 228.33 173.69 239.36"/><polygon class="cls-4" points="201.77 225.87 182.98 235.75 182.91 218.51 201.7 208.63 201.77 225.87"/><polygon class="cls-3" points="195.63 227.57 184.34 233.45 184.29 222.42 195.58 216.54 195.63 227.57"/><polygon class="cls-3" points="200.4 225.43 197.16 227.06 197.12 216.03 200.36 214.41 200.4 225.43"/><polygon class="cls-4" points="222.77 214.41 208.75 221.79 208.69 204.54 222.71 197.16 222.77 214.41"/><polygon class="cls-3" points="221.4 213.6 210.11 219.48 210.07 208.45 221.36 202.57 221.4 213.6"/><polygon class="cls-4" points="249.48 200.12 230.69 209.99 230.62 192.75 249.41 182.87 249.48 200.12"/><polygon class="cls-3" points="243.34 201.81 232.05 207.69 232 196.66 243.3 190.78 243.34 201.81"/><polygon class="cls-3" points="248.11 199.68 244.88 201.3 244.83 190.27 248.07 188.65 248.11 199.68"/><polygon class="cls-4" points="126.47 291.37 112.44 298.75 112.38 281.51 126.4 274.13 126.47 291.37"/><polygon class="cls-3" points="125.1 290.57 113.8 296.45 113.76 285.42 125.05 279.54 125.1 290.57"/><polygon class="cls-4" points="153.17 277.08 134.38 286.96 134.31 269.71 153.11 259.84 153.17 277.08"/><polygon class="cls-3" points="147.03 278.77 135.74 284.65 135.7 273.63 146.99 267.75 147.03 278.77"/><polygon class="cls-3" points="151.8 276.64 148.57 278.27 148.53 267.24 151.76 265.61 151.8 276.64"/><polygon class="cls-4" points="175.16 264.63 161.13 272.01 161.07 254.77 175.09 247.39 175.16 264.63"/><polygon class="cls-3" points="173.78 263.83 162.49 269.71 162.45 258.68 173.74 252.8 173.78 263.83"/><polygon class="cls-4" points="201.86 250.34 183.07 260.22 183 242.97 201.8 233.1 201.86 250.34"/><polygon class="cls-3" points="195.72 252.03 184.43 257.92 184.39 246.89 195.68 241.01 195.72 252.03"/><polygon class="cls-3" points="200.49 249.9 197.26 251.53 197.22 240.5 200.45 238.87 200.49 249.9"/><polygon class="cls-4" points="222.87 238.88 208.85 246.26 208.78 229.01 222.8 221.63 222.87 238.88"/><polygon class="cls-3" points="221.5 238.07 210.21 243.95 210.16 232.92 221.46 227.04 221.5 238.07"/><polygon class="cls-4" points="249.57 224.59 230.78 234.46 230.72 217.22 249.51 207.34 249.57 224.59"/><polygon class="cls-3" points="243.43 226.28 232.14 232.16 232.1 221.13 243.39 215.25 243.43 226.28"/><polygon class="cls-3" points="248.21 224.15 244.97 225.77 244.93 214.74 248.16 213.12 248.21 224.15"/><polygon class="cls-4" points="126.56 315.27 112.54 322.65 112.47 305.41 126.49 298.03 126.56 315.27"/><polygon class="cls-3" points="125.19 314.47 113.9 320.35 113.85 309.32 125.15 303.44 125.19 314.47"/><polygon class="cls-4" points="153.27 300.98 134.47 310.86 134.41 293.62 153.2 283.74 153.27 300.98"/><polygon class="cls-3" points="147.13 302.68 135.83 308.56 135.79 297.53 147.08 291.65 147.13 302.68"/><polygon class="cls-3" points="151.9 300.54 148.66 302.17 148.62 291.14 151.85 289.51 151.9 300.54"/><polygon class="cls-4" points="175.25 288.54 161.23 295.92 161.16 278.67 175.18 271.29 175.25 288.54"/><polygon class="cls-3" points="173.88 287.73 162.59 293.61 162.54 282.58 173.84 276.7 173.88 287.73"/><polygon class="cls-4" points="201.96 274.25 183.16 284.12 183.1 266.88 201.89 257 201.96 274.25"/><polygon class="cls-3" points="195.81 275.94 184.52 281.82 184.48 270.79 195.77 264.91 195.81 275.94"/><polygon class="cls-3" points="200.59 273.81 197.35 275.43 197.31 264.4 200.54 262.78 200.59 273.81"/><polygon class="cls-4" points="222.96 262.78 208.94 270.16 208.87 252.91 222.89 245.53 222.96 262.78"/><polygon class="cls-3" points="221.59 261.97 210.3 267.85 210.25 256.82 221.55 250.94 221.59 261.97"/><polygon class="cls-4" points="249.67 248.49 230.88 258.36 230.81 241.12 249.6 231.24 249.67 248.49"/><polygon class="cls-3" points="243.53 250.18 232.23 256.06 232.19 245.03 243.48 239.15 243.53 250.18"/><polygon class="cls-3" points="248.3 248.05 245.06 249.67 245.02 238.65 248.25 237.02 248.3 248.05"/><polygon class="cls-4" points="153.56 204.57 134.82 214.53 134.63 197.29 153.36 187.34 153.56 204.57"/><polygon class="cls-3" points="147.42 206.29 136.16 212.22 136.04 201.2 147.3 195.27 147.42 206.29"/><polygon class="cls-3" points="152.18 204.14 148.96 205.78 148.83 194.76 152.06 193.12 152.18 204.14"/><polygon class="cls-4" points="175.46 192.04 161.48 199.48 161.29 182.25 175.27 174.81 175.46 192.04"/><polygon class="cls-3" points="174.08 191.24 162.83 197.17 162.7 186.15 173.96 180.22 174.08 191.24"/><polygon class="cls-4" points="202.08 177.64 183.35 187.59 183.15 170.36 201.88 160.41 202.08 177.64"/><polygon class="cls-3" points="195.95 179.36 184.69 185.28 184.57 174.26 195.82 168.34 195.95 179.36"/><polygon class="cls-3" points="200.71 177.21 197.48 178.85 197.36 167.83 200.58 166.19 200.71 177.21"/><polygon class="cls-4" points="223.02 166.09 209.04 173.53 208.84 156.3 222.82 148.86 223.02 166.09"/><polygon class="cls-3" points="221.64 165.29 210.38 171.22 210.26 160.2 221.51 154.27 221.64 165.29"/><polygon class="cls-4" points="249.64 151.69 230.9 161.64 230.71 144.41 249.44 134.46 249.64 151.69"/><polygon class="cls-3" points="243.5 153.41 232.25 159.34 232.12 148.32 243.38 142.39 243.5 153.41"/><polygon class="cls-3" points="248.26 151.26 245.04 152.9 244.91 141.88 248.14 140.24 248.26 151.26"/><polygon class="cls-4" points="153.44 183.53 134.71 193.48 134.51 176.25 153.25 166.3 153.44 183.53"/><polygon class="cls-3" points="147.31 185.25 136.05 191.18 135.93 180.16 147.18 174.23 147.31 185.25"/><polygon class="cls-3" points="152.07 183.1 148.84 184.74 148.72 173.72 151.94 172.08 152.07 183.1"/><polygon class="cls-4" points="175.35 171 161.37 178.43 161.17 161.2 175.15 153.77 175.35 171"/><polygon class="cls-3" points="173.97 170.2 162.71 176.13 162.59 165.11 173.84 159.18 173.97 170.2"/><polygon class="cls-4" points="201.97 156.6 183.24 166.55 183.04 149.32 201.77 139.37 201.97 156.6"/><polygon class="cls-3" points="195.84 158.32 184.58 164.24 184.45 153.22 195.71 147.3 195.84 158.32"/><polygon class="cls-3" points="200.59 156.17 197.37 157.81 197.25 146.79 200.47 145.15 200.59 156.17"/><polygon class="cls-4" points="222.9 145.05 208.93 152.49 208.73 135.25 222.71 127.82 222.9 145.05"/><polygon class="cls-3" points="221.53 144.25 210.27 150.18 210.14 139.16 221.4 133.23 221.53 144.25"/><polygon class="cls-4" points="249.52 130.65 230.79 140.6 230.59 123.37 249.33 113.42 249.52 130.65"/><polygon class="cls-3" points="243.39 132.37 232.13 138.29 232.01 127.27 243.27 121.35 243.39 132.37"/><polygon class="cls-3" points="248.15 130.22 244.93 131.86 244.8 120.84 248.03 119.2 248.15 130.22"/><polygon class="cls-4" points="129.11 338.38 115.13 345.82 114.93 328.6 128.9 321.15 129.11 338.38"/><polygon class="cls-3" points="127.73 337.59 116.47 343.52 116.34 332.5 127.6 326.57 127.73 337.59"/><polygon class="cls-4" points="155.72 323.98 136.99 333.94 136.79 316.71 155.52 306.75 155.72 323.98"/><polygon class="cls-3" points="149.59 325.7 138.33 331.63 138.2 320.61 149.46 314.68 149.59 325.7"/><polygon class="cls-3" points="154.35 323.55 151.12 325.19 150.99 314.17 154.22 312.53 154.35 323.55"/><polygon class="cls-4" points="177.62 311.44 163.65 318.88 163.44 301.65 177.42 294.21 177.62 311.44"/><polygon class="cls-3" points="176.25 310.64 164.99 316.57 164.86 305.55 176.12 299.63 176.25 310.64"/><polygon class="cls-4" points="204.24 297.04 185.51 306.99 185.31 289.76 204.03 279.81 204.24 297.04"/><polygon class="cls-3" points="198.11 298.76 186.85 304.68 186.72 293.67 197.98 287.74 198.11 298.76"/><polygon class="cls-3" points="202.86 296.6 199.64 298.25 199.51 287.23 202.73 285.58 202.86 296.6"/><polygon class="cls-4" points="225.17 285.48 211.19 292.92 210.99 275.69 224.97 268.25 225.17 285.48"/><polygon class="cls-3" points="223.79 284.68 212.54 290.61 212.41 279.59 223.66 273.67 223.79 284.68"/><polygon class="cls-4" points="251.79 271.08 233.06 281.03 232.85 263.8 251.58 253.85 251.79 271.08"/><polygon class="cls-3" points="245.65 272.8 234.4 278.72 234.27 267.7 245.52 261.78 245.65 272.8"/><polygon class="cls-3" points="250.41 270.64 247.19 272.29 247.06 261.27 250.28 259.62 250.41 270.64"/><polygon class="cls-4" points="271.14 162.84 257.12 170.22 257.05 152.98 271.07 145.59 271.14 162.84"/><polygon class="cls-3" points="269.77 162.04 258.48 167.92 258.43 156.89 269.73 151.01 269.77 162.04"/><polygon class="cls-4" points="297.85 148.55 279.05 158.43 278.99 141.18 297.78 131.3 297.85 148.55"/><polygon class="cls-3" points="291.7 150.24 280.41 156.12 280.37 145.09 291.66 139.21 291.7 150.24"/><polygon class="cls-3" points="296.48 148.11 293.24 149.74 293.2 138.71 296.43 137.08 296.48 148.11"/><polygon class="cls-4" points="319.83 136.1 305.81 143.48 305.74 126.24 319.76 118.86 319.83 136.1"/><polygon class="cls-3" points="318.46 135.3 307.17 141.18 307.12 130.15 318.41 124.27 318.46 135.3"/><polygon class="cls-4" points="346.53 121.81 327.74 131.69 327.68 114.44 346.47 104.56 346.53 121.81"/><polygon class="cls-3" points="340.39 123.5 329.1 129.38 329.06 118.35 340.35 112.47 340.39 123.5"/><polygon class="cls-3" points="345.16 121.37 341.93 123 341.89 111.97 345.12 110.34 345.16 121.37"/><polygon class="cls-4" points="271.23 186.74 257.21 194.12 257.14 176.88 271.17 169.5 271.23 186.74"/><polygon class="cls-3" points="269.86 185.94 258.57 191.82 258.52 180.79 269.82 174.91 269.86 185.94"/><polygon class="cls-4" points="297.94 172.45 279.14 182.33 279.08 165.08 297.87 155.21 297.94 172.45"/><polygon class="cls-3" points="291.8 174.14 280.5 180.02 280.46 168.99 291.75 163.11 291.8 174.14"/><polygon class="cls-3" points="296.57 172.01 293.33 173.64 293.29 162.61 296.52 160.98 296.57 172.01"/><polygon class="cls-4" points="319.92 160 305.9 167.38 305.83 150.14 319.85 142.76 319.92 160"/><polygon class="cls-3" points="318.55 159.2 307.26 165.08 307.21 154.05 318.51 148.17 318.55 159.2"/><polygon class="cls-4" points="346.63 145.71 327.83 155.59 327.77 138.34 346.56 128.47 346.63 145.71"/><polygon class="cls-3" points="340.49 147.4 329.19 153.28 329.15 142.25 340.44 136.38 340.49 147.4"/><polygon class="cls-3" points="345.26 145.27 342.02 146.9 341.98 135.87 345.21 134.24 345.26 145.27"/><polygon class="cls-4" points="271.33 211.21 257.3 218.59 257.24 201.35 271.26 193.97 271.33 211.21"/><polygon class="cls-3" points="269.95 210.41 258.66 216.29 258.62 205.26 269.91 199.38 269.95 210.41"/><polygon class="cls-4" points="298.03 196.92 279.24 206.8 279.17 189.55 297.96 179.68 298.03 196.92"/><polygon class="cls-3" points="291.89 198.61 280.6 204.49 280.56 193.46 291.85 187.58 291.89 198.61"/><polygon class="cls-3" points="296.66 196.48 293.43 198.11 293.39 187.08 296.62 185.45 296.66 196.48"/><polygon class="cls-4" points="320.01 184.47 305.99 191.85 305.93 174.61 319.95 167.23 320.01 184.47"/><polygon class="cls-3" points="318.64 183.67 307.35 189.55 307.31 178.52 318.6 172.64 318.64 183.67"/><polygon class="cls-4" points="346.72 170.18 327.93 180.06 327.86 162.81 346.65 152.94 346.72 170.18"/><polygon class="cls-3" points="340.58 171.87 329.29 177.75 329.25 166.72 340.54 160.84 340.58 171.87"/><polygon class="cls-3" points="345.35 169.74 342.12 171.37 342.07 160.34 345.31 158.71 345.35 169.74"/><polygon class="cls-4" points="271.42 235.11 257.4 242.49 257.33 225.25 271.35 217.87 271.42 235.11"/><polygon class="cls-3" points="270.05 234.31 258.75 240.19 258.71 229.16 270 223.28 270.05 234.31"/><polygon class="cls-4" points="298.12 220.82 279.33 230.7 279.26 213.45 298.06 203.58 298.12 220.82"/><polygon class="cls-3" points="291.98 222.51 280.69 228.39 280.65 217.37 291.94 211.49 291.98 222.51"/><polygon class="cls-3" points="296.75 220.38 293.52 222.01 293.48 210.98 296.71 209.35 296.75 220.38"/><polygon class="cls-4" points="320.11 208.37 306.08 215.75 306.02 198.51 320.04 191.13 320.11 208.37"/><polygon class="cls-3" points="318.74 207.57 307.44 213.45 307.4 202.42 318.69 196.54 318.74 207.57"/><polygon class="cls-4" points="346.81 194.08 328.02 203.96 327.95 186.72 346.75 176.84 346.81 194.08"/><polygon class="cls-3" points="340.67 195.78 329.38 201.66 329.34 190.63 340.63 184.75 340.67 195.78"/><polygon class="cls-3" points="345.44 193.64 342.21 195.27 342.17 184.24 345.4 182.61 345.44 193.64"/><polygon class="cls-4" points="271.79 138.81 257.81 146.25 257.62 129.02 271.6 121.58 271.79 138.81"/><polygon class="cls-3" points="270.42 138.01 259.16 143.94 259.03 132.92 270.29 126.99 270.42 138.01"/><polygon class="cls-4" points="298.41 124.41 279.68 134.36 279.48 117.13 298.22 107.18 298.41 124.41"/><polygon class="cls-3" points="292.28 126.13 281.02 132.06 280.9 121.03 292.15 115.11 292.28 126.13"/><polygon class="cls-3" points="297.04 123.98 293.81 125.62 293.69 114.6 296.91 112.96 297.04 123.98"/><polygon class="cls-4" points="320.32 111.88 306.34 119.31 306.15 102.08 320.12 94.65 320.32 111.88"/><polygon class="cls-3" points="318.94 111.08 307.68 117.01 307.56 105.99 318.82 100.06 318.94 111.08"/><polygon class="cls-4" points="346.94 97.48 328.21 107.43 328.01 90.2 346.74 80.25 346.94 97.48"/><polygon class="cls-3" points="340.81 99.2 329.55 105.12 329.42 94.1 340.68 88.18 340.81 99.2"/><polygon class="cls-3" points="345.56 97.05 342.34 98.69 342.22 87.67 345.44 86.03 345.56 97.05"/><polygon class="cls-4" points="271.68 117.77 257.7 125.2 257.51 107.97 271.48 100.54 271.68 117.77"/><polygon class="cls-3" points="270.3 116.97 259.05 122.9 258.92 111.88 270.18 105.95 270.3 116.97"/><polygon class="cls-4" points="298.3 103.37 279.57 113.32 279.37 96.09 298.1 86.14 298.3 103.37"/><polygon class="cls-3" points="292.17 105.09 280.91 111.01 280.79 99.99 292.04 94.07 292.17 105.09"/><polygon class="cls-3" points="296.93 102.94 293.7 104.58 293.58 93.56 296.8 91.92 296.93 102.94"/><polygon class="cls-4" points="320.21 90.83 306.23 98.27 306.03 81.04 320.01 73.61 320.21 90.83"/><polygon class="cls-3" points="318.83 90.04 307.57 95.96 307.45 84.94 318.7 79.02 318.83 90.04"/><polygon class="cls-4" points="346.83 76.44 328.09 86.39 327.9 69.16 346.63 59.21 346.83 76.44"/><polygon class="cls-3" points="340.69 78.16 329.44 84.08 329.31 73.06 340.57 67.14 340.69 78.16"/><polygon class="cls-3" points="345.45 76 342.23 77.64 342.1 66.62 345.33 64.98 345.45 76"/><polygon class="cls-4" points="273.96 258.22 259.99 265.66 259.79 248.43 273.76 240.99 273.96 258.22"/><polygon class="cls-3" points="272.59 257.43 261.33 263.35 261.2 252.33 272.46 246.41 272.59 257.43"/><polygon class="cls-4" points="300.58 243.82 281.85 253.77 281.65 236.54 300.38 226.59 300.58 243.82"/><polygon class="cls-3" points="294.45 245.54 283.19 251.47 283.06 240.45 294.32 234.52 294.45 245.54"/><polygon class="cls-3" points="299.2 243.38 295.98 245.03 295.85 234.01 299.08 232.37 299.2 243.38"/><polygon class="cls-4" points="322.48 231.28 308.51 238.72 308.3 221.49 322.28 214.05 322.48 231.28"/><polygon class="cls-3" points="321.1 230.48 309.85 236.41 309.72 225.39 320.97 219.46 321.1 230.48"/><polygon class="cls-4" points="349.1 216.88 330.37 226.83 330.16 209.6 348.89 199.65 349.1 216.88"/><polygon class="cls-3" points="342.96 218.59 331.71 224.52 331.58 213.5 342.83 207.57 342.96 218.59"/><polygon class="cls-3" points="347.72 216.44 344.5 218.08 344.37 207.06 347.59 205.42 347.72 216.44"/><polygon class="cls-4" points="62.08 251 81.27 260.25 81.31 243.01 62.13 233.75 62.08 251"/><polygon class="cls-3" points="68.35 252.49 79.88 257.99 79.91 246.97 68.38 241.46 68.35 252.49"/><polygon class="cls-3" points="63.48 250.51 66.78 252.03 66.81 241 63.51 239.48 63.48 250.51"/><polygon class="cls-4" points="40.64 240.22 54.95 247.14 54.99 229.89 40.68 222.97 40.64 240.22"/><polygon class="cls-3" points="42.03 239.37 53.56 244.88 53.59 233.85 42.06 228.34 42.03 239.37"/><polygon class="cls-4" points="13.37 226.81 32.56 236.06 32.6 218.82 13.41 209.56 13.37 226.81"/><polygon class="cls-3" points="19.64 228.3 31.17 233.81 31.19 222.78 19.66 217.27 19.64 228.3"/><polygon class="cls-3" points="14.77 226.32 18.07 227.84 18.09 216.81 14.79 215.29 14.77 226.32"/><polygon class="cls-4" points="62.03 274.9 81.21 284.16 81.25 266.91 62.07 257.65 62.03 274.9"/><polygon class="cls-3" points="68.29 276.39 79.82 281.9 79.85 270.87 68.32 265.36 68.29 276.39"/><polygon class="cls-3" points="63.42 274.41 66.72 275.94 66.75 264.9 63.45 263.38 63.42 274.41"/><polygon class="cls-4" points="40.58 264.12 54.9 271.04 54.94 253.8 40.62 246.88 40.58 264.12"/><polygon class="cls-3" points="41.98 263.27 53.51 268.78 53.53 257.75 42 252.24 41.98 263.27"/><polygon class="cls-4" points="13.31 250.71 32.5 259.97 32.54 242.72 13.36 233.46 13.31 250.71"/><polygon class="cls-3" points="19.58 252.2 31.11 257.71 31.14 246.68 19.61 241.17 19.58 252.2"/><polygon class="cls-3" points="14.71 250.22 18.01 251.75 18.04 240.72 14.74 239.19 14.71 250.22"/><polygon class="cls-4" points="61.97 299.37 81.16 308.63 81.2 291.38 62.01 282.12 61.97 299.37"/><polygon class="cls-3" points="68.24 300.86 79.77 306.37 79.79 295.34 68.26 289.83 68.24 300.86"/><polygon class="cls-3" points="63.37 298.88 66.67 300.41 66.69 289.38 63.39 287.86 63.37 298.88"/><polygon class="cls-4" points="40.52 288.59 54.84 295.51 54.88 278.27 40.56 271.35 40.52 288.59"/><polygon class="cls-3" points="41.92 287.75 53.45 293.25 53.47 282.22 41.95 276.71 41.92 287.75"/><polygon class="cls-4" points="13.26 275.18 32.44 284.44 32.48 267.19 13.3 257.93 13.26 275.18"/><polygon class="cls-3" points="19.52 276.67 31.05 282.18 31.08 271.15 19.55 265.64 19.52 276.67"/><polygon class="cls-3" points="14.65 274.69 17.95 276.22 17.98 265.19 14.68 263.67 14.65 274.69"/><polygon class="cls-4" points="61.91 323.27 81.1 332.53 81.14 315.29 61.95 306.03 61.91 323.27"/><polygon class="cls-3" points="68.18 324.76 79.71 330.27 79.73 319.24 68.2 313.73 68.18 324.76"/><polygon class="cls-3" points="63.31 322.79 66.61 324.31 66.64 313.28 63.33 311.76 63.31 322.79"/><polygon class="cls-4" points="40.46 312.5 54.78 319.42 54.82 302.17 40.51 295.25 40.46 312.5"/><polygon class="cls-3" points="41.86 311.65 53.39 317.16 53.42 306.13 41.89 300.62 41.86 311.65"/><polygon class="cls-4" points="13.2 299.08 32.38 308.34 32.42 291.1 13.24 281.84 13.2 299.08"/><polygon class="cls-3" points="19.46 300.57 30.99 306.08 31.02 295.05 19.49 289.54 19.46 300.57"/><polygon class="cls-3" points="14.59 298.6 17.89 300.12 17.92 289.09 14.62 287.57 14.59 298.6"/><polygon class="cls-4" points="59.62 346.14 78.74 355.48 78.92 338.24 59.8 328.9 59.62 346.14"/><polygon class="cls-3" points="65.88 347.66 77.37 353.21 77.48 342.19 65.99 336.63 65.88 347.66"/><polygon class="cls-3" points="61.02 345.66 64.31 347.19 64.42 336.17 61.13 334.64 61.02 345.66"/><polygon class="cls-4" points="38.24 335.27 52.51 342.25 52.69 325.02 38.42 318.04 38.24 335.27"/><polygon class="cls-3" points="39.65 334.43 51.14 339.99 51.26 328.96 39.77 323.41 39.65 334.43"/><polygon class="cls-4" points="11.07 321.74 30.19 331.08 30.37 313.85 11.25 304.51 11.07 321.74"/><polygon class="cls-3" points="17.33 323.26 28.82 328.82 28.94 317.8 17.45 312.24 17.33 323.26"/><polygon class="cls-3" points="12.47 321.26 15.76 322.8 15.88 311.78 12.59 310.24 12.47 321.26"/><polygon class="cls-2" points="54.97 132.97 299.08 4.9 360.23 36.29 121.8 164.05 54.97 132.97"/><polygon class="cls-4" points="6.86 186.53 54.99 159.79 54.99 163.5 10.01 188.26 6.86 186.53"/><polygon class="cls-4" points="64.06 133.27 226.72 48.06 226.72 51.77 67.21 135.01 64.06 133.27"/><polygon class="cls-4" points="299.86 8.45 353.26 36.32 349.53 37.64 297.85 9.88 299.86 8.45"/><polygon class="cls-5" points="14.06 188.9 55.35 165.96 55.07 185.27 52.02 188.26 117.43 219.48 96.28 230.51 14.06 188.9"/><polygon class="cls-2" points="312.82 15.27 285.23 0 226.86 30.86 257.81 45.97 312.82 15.27"/><polygon class="cls-1" points="257.73 46.19 312.46 15.33 312.74 41.2 258.11 69.79 257.73 46.19"/><polygon class="cls-3" points="226.72 30.92 257.82 46.01 258.11 69.96 227.09 55.44 226.72 30.92"/><polygon class="cls-3" points="54.97 132.97 54.97 190.01 122.27 221.15 121.8 164.05 54.97 132.97"/><polygon class="cls-4" points="88.81 198.31 107.94 207.65 108.11 190.41 88.99 181.08 88.81 198.31"/><polygon class="cls-3" points="95.08 199.83 106.57 205.38 106.68 194.36 95.19 188.81 95.08 199.83"/><polygon class="cls-3" points="90.22 197.83 93.51 199.37 93.62 188.34 90.33 186.81 90.22 197.83"/><polygon class="cls-4" points="67.44 187.45 81.71 194.43 81.88 177.19 67.61 170.21 67.44 187.45"/><polygon class="cls-3" points="68.84 186.61 80.34 192.16 80.45 181.14 68.95 175.58 68.84 186.61"/><polygon class="cls-4" points="88.9 177.27 108.02 186.6 108.2 169.37 89.07 160.03 88.9 177.27"/><polygon class="cls-3" points="95.16 178.78 106.65 184.34 106.76 173.32 95.27 167.76 95.16 178.78"/><polygon class="cls-3" points="90.3 176.79 93.59 178.32 93.7 167.3 90.41 165.76 90.3 176.79"/><polygon class="cls-4" points="67.52 166.41 81.79 173.38 81.97 156.15 67.69 149.17 67.52 166.41"/><polygon class="cls-3" points="68.93 165.56 80.42 171.12 80.53 160.09 69.04 154.54 68.93 165.56"/><polygon class="cls-4" points="360.23 136.29 387.46 150.9 384.11 152.77 360.23 139.39 360.23 136.29"/><polygon class="cls-4" points="396.38 151.44 360.23 169.57 360.36 200.38 396.38 182.91 396.38 151.44"/><polygon class="cls-5" points="360.23 164.11 382.11 153.28 360.23 141.18 360.23 164.11"/></svg>