<svg xmlns="http://www.w3.org/2000/svg" viewBox="0 0 244.64 260.75"><defs><style>.cls-1{isolation:isolate;}.cls-2{fill:#879096;}.cls-3{fill:#828a90;}.cls-4{fill:#6d6e71;}.cls-5{fill:#90999f;}.cls-6{fill:#a7a9ac;}.cls-7{fill:#82953a;}.cls-8{fill:#808285;}.cls-9{fill:#d1d3d4;}.cls-10{opacity:0.2;mix-blend-mode:multiply;}.cls-11{fill:#333;}.cls-12{fill:#402711;}.cls-13{fill:#5e3919;}.cls-14{fill:#4d2f14;}.cls-15{fill:#2c170d;}.cls-16{fill:#738336;}.cls-17{fill:#526d33;}.cls-18{fill:#939598;}.cls-19{fill:#7d7e78;}</style></defs><title>site 10</title><g class="cls-1"><g id="Layer_1" data-name="Layer 1"><polygon class="cls-2" points="66.83 101.67 197.38 31.38 198.27 92.71 203.01 89.86 236.65 107.38 236.77 140.73 212.38 153.67 221.55 157.1 222.48 190.54 88.19 260.75 68.48 248.58 66.83 101.67"/><polygon class="cls-3" points="0 70.58 136.23 0 197.38 31.38 66.83 101.67 0 70.58"/><polygon class="cls-4" points="190.41 31.42 137.2 3.64 137.2 3.54 137.1 3.59 137.01 3.54 136.65 3.83 9.09 70.89 12.24 72.63 136.86 7.43 186.68 32.74 190.41 31.42"/><polygon class="cls-5" points="0 70.58 0.18 213.44 88.19 260.75 87.64 226.31 68.06 216.3 66.83 101.67 0 70.58"/><polygon class="cls-6" points="198.27 92.71 198.81 128.21 236.65 107.38 203.01 89.86 198.27 92.71"/><polygon class="cls-7" points="198.35 101.2 204.19 97.8 226.71 109.38 198.35 125.49 198.35 101.2"/><polygon class="cls-4" points="199.38 161.41 198.81 128.21 236.65 107.38 236.77 140.73 199.38 161.41"/><polygon class="cls-4" points="198.35 95.36 202.81 92.49 232.34 107.16 229.88 108.31 203.81 95.36 198.35 98.65 198.35 95.36"/><polygon class="cls-4" points="68.06 216.3 199.18 149.32 221.55 157.1 87.65 226.66 68.06 216.3"/><polygon class="cls-7" points="72.88 215.77 199.23 152.19 215.42 158.15 87.51 223.92 72.88 215.77"/><polygon class="cls-8" points="75.88 105.59 94.29 95.92 94.29 123.92 75.88 133.21 75.88 105.59"/><polygon class="cls-9" points="75.88 109.43 91.33 101.67 91.33 120.45 75.88 128.21 75.88 109.43"/><polygon class="cls-8" points="99.72 93.23 118.13 83.56 118.13 111.56 99.72 120.85 99.72 93.23"/><polygon class="cls-9" points="99.72 97.07 115.17 89.31 115.17 108.09 99.72 115.85 99.72 97.07"/><polygon class="cls-8" points="123.11 81.76 141.51 72.09 141.51 100.09 123.11 109.39 123.11 81.76"/><polygon class="cls-9" points="123.11 85.6 138.55 77.84 138.55 96.63 123.11 104.39 123.11 85.6"/><polygon class="cls-8" points="146.95 69.4 165.35 59.74 165.35 87.74 146.95 97.03 146.95 69.4"/><polygon class="cls-9" points="146.95 73.24 162.39 65.48 162.39 84.27 146.95 92.03 146.95 73.24"/><polygon class="cls-8" points="170.6 57.24 189.01 47.58 189.01 75.58 170.6 84.87 170.6 57.24"/><polygon class="cls-9" points="170.6 61.08 186.05 53.33 186.05 72.11 170.6 79.87 170.6 61.08"/><polygon class="cls-8" points="75.88 141.68 94.29 132.01 94.29 160.01 75.88 169.3 75.88 141.68"/><polygon class="cls-9" points="75.88 145.52 91.33 137.76 91.33 156.55 75.88 164.3 75.88 145.52"/><polygon class="cls-8" points="99.72 129.32 118.13 119.66 118.13 147.66 99.72 156.95 99.72 129.32"/><polygon class="cls-9" points="99.72 133.16 115.17 125.4 115.17 144.19 99.72 151.95 99.72 133.16"/><polygon class="cls-8" points="123.11 117.86 141.51 108.19 141.51 136.19 123.11 145.48 123.11 117.86"/><polygon class="cls-9" points="123.11 121.69 138.55 113.94 138.55 132.72 123.11 140.48 123.11 121.69"/><polygon class="cls-8" points="146.95 105.5 165.35 95.83 165.35 123.83 146.95 133.12 146.95 105.5"/><polygon class="cls-9" points="146.95 109.34 162.39 101.58 162.39 120.36 146.95 128.12 146.95 109.34"/><polygon class="cls-8" points="170.6 93.34 189.01 83.67 189.01 111.67 170.6 120.96 170.6 93.34"/><polygon class="cls-9" points="170.6 97.18 186.05 89.42 186.05 108.2 170.6 115.96 170.6 97.18"/><polygon class="cls-8" points="75.88 178.01 94.29 168.34 94.29 196.34 75.88 205.63 75.88 178.01"/><polygon class="cls-9" points="75.88 181.85 91.33 174.09 91.33 192.88 75.88 200.63 75.88 181.85"/><polygon class="cls-8" points="55.1 106.35 36.69 96.68 36.69 124.68 55.1 133.97 55.1 106.35"/><polygon class="cls-9" points="55.1 110.19 39.65 102.43 39.65 121.22 55.1 128.97 55.1 110.19"/><polygon class="cls-8" points="55.1 142.44 36.69 132.78 36.69 160.78 55.1 170.07 55.1 142.44"/><polygon class="cls-9" points="55.1 146.28 39.65 138.52 39.65 157.31 55.1 165.07 55.1 146.28"/><polygon class="cls-8" points="55.1 178.77 36.69 169.1 36.69 197.1 55.1 206.4 55.1 178.77"/><polygon class="cls-9" points="55.1 182.61 39.65 174.85 39.65 193.64 55.1 201.4 55.1 182.61"/><polygon class="cls-8" points="55.1 212.75 36.69 203.09 36.69 231.09 55.1 240.38 55.1 212.75"/><polygon class="cls-9" points="55.1 216.59 39.65 208.83 39.65 227.62 55.1 235.38 55.1 216.59"/><polygon class="cls-8" points="81.06 228 62.66 218.34 62.66 246.34 81.06 255.63 81.06 228"/><polygon class="cls-9" points="81.06 231.85 65.62 224.09 65.62 242.87 81.06 250.63 81.06 231.85"/><polygon class="cls-8" points="26.36 94.16 7.96 84.49 7.96 112.49 26.36 121.78 26.36 94.16"/><polygon class="cls-9" points="26.36 98 10.92 90.24 10.92 109.02 26.36 116.78 26.36 98"/><polygon class="cls-8" points="26.36 130.25 7.96 120.58 7.96 148.58 26.36 157.87 26.36 130.25"/><polygon class="cls-9" points="26.36 134.09 10.92 126.33 10.92 145.12 26.36 152.87 26.36 134.09"/><polygon class="cls-8" points="26.36 166.58 7.96 156.91 7.96 184.91 26.36 194.2 26.36 166.58"/><polygon class="cls-9" points="26.36 170.42 10.92 162.66 10.92 181.44 26.36 189.2 26.36 170.42"/><polygon class="cls-8" points="99.72 165.65 118.13 155.98 118.13 183.98 99.72 193.28 99.72 165.65"/><polygon class="cls-9" points="99.72 169.49 115.17 161.73 115.17 180.52 99.72 188.28 99.72 169.49"/><polygon class="cls-8" points="123.11 154.18 141.51 144.52 141.51 172.52 123.11 181.81 123.11 154.18"/><polygon class="cls-9" points="123.11 158.02 138.55 150.26 138.55 169.05 123.11 176.81 123.11 158.02"/><polygon class="cls-8" points="146.95 141.83 165.35 132.16 165.35 160.16 146.95 169.45 146.95 141.83"/><polygon class="cls-9" points="146.95 145.67 162.39 137.91 162.39 156.69 146.95 164.45 146.95 145.67"/><polygon class="cls-8" points="170.6 129.67 189.01 120 189.01 148 170.6 157.29 170.6 129.67"/><polygon class="cls-9" points="170.6 133.51 186.05 125.75 186.05 144.53 170.6 152.29 170.6 133.51"/><polygon class="cls-8" points="98.1 225.36 116.51 215.69 116.51 243.69 98.1 252.99 98.1 225.36"/><polygon class="cls-9" points="98.1 229.2 113.55 221.44 113.55 240.23 98.1 247.99 98.1 229.2"/><polygon class="cls-8" points="121.94 213 140.35 203.34 140.35 231.34 121.94 240.63 121.94 213"/><polygon class="cls-9" points="121.94 216.84 137.39 209.09 137.39 227.87 121.94 235.63 121.94 216.84"/><polygon class="cls-8" points="145.33 201.54 163.73 191.87 163.73 219.87 145.33 229.16 145.33 201.54"/><polygon class="cls-9" points="145.33 205.38 160.77 197.62 160.77 216.41 145.33 224.16 145.33 205.38"/><polygon class="cls-8" points="169.17 189.18 187.57 179.51 187.57 207.51 169.17 216.81 169.17 189.18"/><polygon class="cls-9" points="169.17 193.02 184.61 185.26 184.61 204.05 169.17 211.81 169.17 193.02"/><polygon class="cls-8" points="192.83 177.02 211.23 167.35 211.23 195.35 192.83 204.65 192.83 177.02"/><polygon class="cls-9" points="192.83 180.86 208.27 173.1 208.27 191.89 192.83 199.65 192.83 180.86"/><polygon class="cls-8" points="201.47 129.7 219.87 120.03 219.87 147.03 208.47 153.49 201.41 151.98 201.47 129.7"/><polygon class="cls-9" points="201.47 133.54 216.91 125.78 216.91 144.56 201.47 152.32 201.47 133.54"/><g class="cls-10"><path class="cls-11" d="M104.17,205.2a2.59,2.59,0,0,1,.74-.55,4.74,4.74,0,0,1,4.38.1,1.31,1.31,0,0,1,.68,1.41,3.63,3.63,0,0,1,1.48.53c1.1.74.92,1.89-.4,2.57a4,4,0,0,1-.65.26c.16.6-.21,1.25-1.08,1.7a4.74,4.74,0,0,1-4.38-.1,2.22,2.22,0,0,1-.27-.21,5,5,0,0,1-3.77.12l-2.32,1.21-.07,0a1,1,0,0,1-.79-.15c-.26-.18-.31-.41-.09-.52l2.34-1.22c-.55-.68-.29-1.54.71-2.12l-.22-.13c-1.1-.74-.92-1.89.4-2.58A5,5,0,0,1,104.17,205.2Z"/></g><path class="cls-12" d="M97.21,202h1.63v9.85h0a56.59,56.59,0,0,0-1.59-9Z"/><polyline class="cls-12" points="97.38 203.16 97.32 199.31 98.78 199.31 98.84 206.51"/><path class="cls-13" d="M97.21,202.74a57.82,57.82,0,0,1,1.59,9.12H97.21Z"/><path class="cls-12" d="M99.25,211.86a.55.55,0,0,1,0,.14l-.17-.58A.66.66,0,0,1,99.25,211.86Z"/><path class="cls-13" d="M98,211a1.12,1.12,0,0,1,.88.39l.14.58a1,1,0,0,1-1,.69A.85.85,0,1,1,98,211Z"/><ellipse class="cls-14" cx="98.35" cy="211.18" rx="0.69" ry="0.03" transform="translate(-114.29 306.33) rotate(-89.14)"/><ellipse class="cls-14" cx="97.46" cy="209.02" rx="1.15" ry="0.05" transform="translate(-112.66 304.09) rotate(-89.35)"/><ellipse class="cls-15" cx="98.71" cy="208.24" rx="0.03" ry="0.69"/><ellipse class="cls-16" cx="98.11" cy="198.38" rx="0.04" ry="0.12" transform="translate(-30.96 18.6) rotate(-9.36)"/><ellipse class="cls-16" cx="98.17" cy="200.48" rx="3.02" ry="3.1"/><ellipse class="cls-7" cx="97.87" cy="200.68" rx="2.65" ry="2.73"/><ellipse class="cls-16" cx="97.86" cy="201.89" rx="0.12" ry="0.04" transform="translate(-111.32 283.01) rotate(-85.34)"/><ellipse class="cls-16" cx="97.96" cy="199.97" rx="0.04" ry="0.12" transform="translate(-19.83 11) rotate(-5.84)"/><ellipse class="cls-16" cx="98.22" cy="198.5" rx="0.04" ry="0.12" transform="translate(-18.42 10.23) rotate(-5.45)"/><ellipse class="cls-16" cx="98.83" cy="200.89" rx="0.04" ry="0.12" transform="translate(-31.51 18.86) rotate(-9.41)"/><ellipse class="cls-16" cx="99.18" cy="199.27" rx="0.04" ry="0.12" transform="translate(-31.34 18.97) rotate(-9.44)"/><ellipse class="cls-16" cx="98.88" cy="202.62" rx="0.12" ry="0.04" transform="translate(-126.21 215.5) rotate(-67.26)"/><ellipse class="cls-16" cx="99.92" cy="201.23" rx="0.12" ry="0.04" transform="translate(-118.83 252.45) rotate(-76.77)"/><ellipse class="cls-16" cx="96.98" cy="200.99" rx="0.12" ry="0.04" transform="translate(-110.86 282.25) rotate(-85.6)"/><ellipse class="cls-16" cx="97.18" cy="199.03" rx="0.12" ry="0.04" transform="matrix(0.08, -1, 1, 0.08, -108.77, 280.53)"/><ellipse class="cls-16" cx="95.87" cy="200.09" rx="0.12" ry="0.04" transform="translate(-111.04 280.19) rotate(-85.56)"/><ellipse class="cls-16" cx="96.79" cy="202.62" rx="0.12" ry="0.04" transform="translate(-112.68 283.53) rotate(-85.59)"/><ellipse class="cls-17" cx="100.77" cy="199.85" rx="0.04" ry="0.12" transform="translate(-74.15 60.21) rotate(-24.64)"/><ellipse class="cls-17" cx="100.17" cy="202.5" rx="0.12" ry="0.04" transform="translate(-122.59 240.18) rotate(-73.28)"/><ellipse class="cls-17" cx="100.93" cy="200.77" rx="0.12" ry="0.04" transform="translate(-120.27 240.31) rotate(-73.45)"/><ellipse class="cls-17" cx="99.56" cy="198.19" rx="0.04" ry="0.12" transform="translate(-122.15 203.99) rotate(-64.82)"/><ellipse class="cls-17" cx="96.98" cy="197.95" rx="0.12" ry="0.04" transform="translate(-79.88 66.38) rotate(-27.25)"/><ellipse class="cls-16" cx="94.79" cy="195.45" rx="0.04" ry="0.12" transform="translate(-30.52 18.01) rotate(-9.36)"/><ellipse class="cls-16" cx="94.85" cy="197.55" rx="3.02" ry="3.1"/><ellipse class="cls-7" cx="94.55" cy="197.75" rx="2.65" ry="2.73"/><ellipse class="cls-16" cx="94.54" cy="198.96" rx="0.12" ry="0.04" transform="translate(-111.46 276.99) rotate(-85.33)"/><ellipse class="cls-16" cx="94.64" cy="197.04" rx="0.04" ry="0.12" transform="translate(-19.04 10.33) rotate(-5.68)"/><ellipse class="cls-16" cx="94.9" cy="195.57" rx="0.04" ry="0.12" transform="translate(-18.29 9.98) rotate(-5.49)"/><ellipse class="cls-16" cx="95.51" cy="197.96" rx="0.04" ry="0.12" transform="translate(-31.53 18.6) rotate(-9.55)"/><ellipse class="cls-16" cx="95.85" cy="196.34" rx="0.04" ry="0.12" transform="translate(-30.71 18.24) rotate(-9.38)"/><ellipse class="cls-16" cx="95.56" cy="199.69" rx="0.12" ry="0.04" transform="translate(-125.58 209.95) rotate(-67.08)"/><ellipse class="cls-16" cx="96.6" cy="198.3" rx="0.12" ry="0.04" transform="translate(-118.47 247.26) rotate(-76.85)"/><ellipse class="cls-16" cx="93.66" cy="198.06" rx="0.12" ry="0.04" transform="translate(-111.25 275.6) rotate(-85.42)"/><ellipse class="cls-16" cx="93.86" cy="196.1" rx="0.12" ry="0.04" transform="matrix(0.07, -1, 1, 0.07, -108.7, 275.06)"/><ellipse class="cls-16" cx="92.55" cy="197.16" rx="0.12" ry="0.04" transform="translate(-111.17 274.2) rotate(-85.57)"/><ellipse class="cls-16" cx="93.47" cy="199.69" rx="0.12" ry="0.04" transform="translate(-112.95 277.18) rotate(-85.49)"/><ellipse class="cls-17" cx="97.45" cy="196.92" rx="0.04" ry="0.12" transform="translate(-74.2 59.77) rotate(-25.05)"/><ellipse class="cls-17" cx="96.85" cy="199.57" rx="0.12" ry="0.04" transform="translate(-122.17 234.79) rotate(-73.25)"/><ellipse class="cls-17" cx="97.61" cy="197.84" rx="0.12" ry="0.04" transform="translate(-119.84 235.04) rotate(-73.45)"/><ellipse class="cls-17" cx="96.24" cy="195.26" rx="0.04" ry="0.12" transform="translate(-121.41 199.65) rotate(-64.92)"/><ellipse class="cls-17" cx="93.66" cy="195.02" rx="0.12" ry="0.04" transform="translate(-78.5 64) rotate(-27.08)"/><ellipse class="cls-16" cx="101.57" cy="195.45" rx="0.04" ry="0.12" transform="translate(-30.66 19.29) rotate(-9.43)"/><ellipse class="cls-16" cx="101.63" cy="197.55" rx="3.02" ry="3.1"/><ellipse class="cls-7" cx="101.33" cy="197.75" rx="2.65" ry="2.73"/><ellipse class="cls-16" cx="101.32" cy="198.96" rx="0.12" ry="0.04" transform="translate(-105.19 283.83) rotate(-85.35)"/><ellipse class="cls-16" cx="101.43" cy="197.04" rx="0.04" ry="0.12" transform="translate(-18.97 10.99) rotate(-5.67)"/><ellipse class="cls-16" cx="101.68" cy="195.57" rx="0.04" ry="0.12" transform="translate(-18.34 10.69) rotate(-5.52)"/><ellipse class="cls-16" cx="102.3" cy="197.96" rx="0.04" ry="0.12" transform="translate(-31.29 19.61) rotate(-9.51)"/><ellipse class="cls-16" cx="102.64" cy="196.34" rx="0.04" ry="0.12" transform="translate(-30.66 19.38) rotate(-9.39)"/><ellipse class="cls-16" cx="102.34" cy="199.69" rx="0.12" ry="0.04" transform="translate(-121.44 216.2) rotate(-67.08)"/><ellipse class="cls-16" cx="103.39" cy="198.3" rx="0.12" ry="0.04" transform="translate(-113.28 253.7) rotate(-76.81)"/><ellipse class="cls-16" cx="100.44" cy="198.06" rx="0.12" ry="0.04" transform="translate(-104.97 282.44) rotate(-85.44)"/><ellipse class="cls-16" cx="100.64" cy="196.1" rx="0.12" ry="0.04" transform="translate(-102.45 281.77) rotate(-85.7)"/><ellipse class="cls-16" cx="99.34" cy="197.16" rx="0.12" ry="0.04" transform="translate(-104.9 280.99) rotate(-85.57)"/><ellipse class="cls-16" cx="100.25" cy="199.69" rx="0.12" ry="0.04" transform="translate(-106.64 284.1) rotate(-85.54)"/><ellipse class="cls-17" cx="104.23" cy="196.92" rx="0.04" ry="0.12" transform="translate(-73.29 62.28) rotate(-24.93)"/><ellipse class="cls-17" cx="103.63" cy="199.57" rx="0.12" ry="0.04" transform="translate(-117.42 240.87) rotate(-73.14)"/><ellipse class="cls-17" cx="104.39" cy="197.84" rx="0.12" ry="0.04" transform="translate(-114.93 241.84) rotate(-73.53)"/><ellipse class="cls-17" cx="103.03" cy="195.26" rx="0.04" ry="0.12" transform="translate(-117.48 206.12) rotate(-65)"/><ellipse class="cls-17" cx="100.44" cy="195.02" rx="0.12" ry="0.04" transform="translate(-78.67 68.36) rotate(-27.48)"/><ellipse class="cls-16" cx="100.21" cy="192.04" rx="0.04" ry="0.12" transform="translate(-30.27 19.13) rotate(-9.48)"/><ellipse class="cls-16" cx="100.27" cy="194.14" rx="3.02" ry="3.1"/><ellipse class="cls-7" cx="99.97" cy="194.34" rx="2.65" ry="2.73"/><ellipse class="cls-16" cx="99.96" cy="195.55" rx="0.12" ry="0.04" transform="translate(-103.2 278.97) rotate(-85.25)"/><ellipse class="cls-16" cx="100.06" cy="193.63" rx="0.04" ry="0.12" transform="translate(-19.42 11.34) rotate(-5.91)"/><ellipse class="cls-16" cx="100.32" cy="192.16" rx="0.04" ry="0.12" transform="translate(-18.27 10.71) rotate(-5.6)"/><ellipse class="cls-16" cx="100.94" cy="194.55" rx="0.04" ry="0.12" transform="translate(-30.99 19.53) rotate(-9.59)"/><ellipse class="cls-16" cx="101.28" cy="192.93" rx="0.04" ry="0.12" transform="translate(-30.72 19.56) rotate(-9.59)"/><ellipse class="cls-16" cx="100.98" cy="196.28" rx="0.12" ry="0.04" transform="translate(-119.1 213.24) rotate(-67.18)"/><ellipse class="cls-16" cx="102.02" cy="194.89" rx="0.12" ry="0.04" transform="translate(-111.08 249.45) rotate(-76.73)"/><ellipse class="cls-16" cx="99.08" cy="194.64" rx="0.12" ry="0.04" transform="matrix(0.08, -1, 1, 0.08, -102.53, 278.65)"/><ellipse class="cls-16" cx="99.28" cy="192.69" rx="0.12" ry="0.04" transform="translate(-100.57 276.63) rotate(-85.53)"/><ellipse class="cls-16" cx="97.97" cy="193.75" rx="0.12" ry="0.04" transform="translate(-102.9 276.14) rotate(-85.48)"/><ellipse class="cls-16" cx="98.89" cy="196.28" rx="0.12" ry="0.04" transform="translate(-104.34 279.95) rotate(-85.64)"/><ellipse class="cls-17" cx="102.87" cy="193.51" rx="0.04" ry="0.12" transform="translate(-71.8 61.15) rotate(-24.85)"/><ellipse class="cls-17" cx="102.27" cy="196.16" rx="0.12" ry="0.04" transform="translate(-114.95 238.02) rotate(-73.37)"/><ellipse class="cls-17" cx="103.03" cy="194.43" rx="0.12" ry="0.04" transform="translate(-112.65 238.01) rotate(-73.51)"/><ellipse class="cls-17" cx="101.66" cy="191.85" rx="0.04" ry="0.12" transform="translate(-115.16 203.22) rotate(-65.08)"/><ellipse class="cls-17" cx="99.08" cy="191.61" rx="0.12" ry="0.04" transform="translate(-77.38 67.54) rotate(-27.54)"/><ellipse class="cls-16" cx="96.3" cy="191.51" rx="0.04" ry="0.12" transform="translate(-30.31 18.54) rotate(-9.51)"/><ellipse class="cls-16" cx="96.37" cy="193.61" rx="3.02" ry="3.1"/><ellipse class="cls-7" cx="96.06" cy="193.81" rx="2.65" ry="2.73"/><ellipse class="cls-16" cx="96.05" cy="195.02" rx="0.12" ry="0.04" transform="translate(-106.14 274.87) rotate(-85.33)"/><ellipse class="cls-16" cx="96.16" cy="193.1" rx="0.04" ry="0.12" transform="matrix(0.99, -0.1, 0.1, 0.99, -19.01, 10.7)"/><ellipse class="cls-16" cx="96.42" cy="191.63" rx="0.04" ry="0.12" transform="translate(-18.18 10.29) rotate(-5.58)"/><ellipse class="cls-16" cx="97.03" cy="194.02" rx="0.04" ry="0.12" transform="translate(-30.85 18.79) rotate(-9.55)"/><ellipse class="cls-16" cx="97.37" cy="192.4" rx="0.04" ry="0.12" transform="translate(-30.59 18.83) rotate(-9.56)"/><ellipse class="cls-16" cx="97.08" cy="195.75" rx="0.12" ry="0.04" transform="translate(-121.02 208.99) rotate(-67.1)"/><ellipse class="cls-16" cx="98.12" cy="194.36" rx="0.12" ry="0.04" transform="translate(-113.39 245.97) rotate(-76.93)"/><ellipse class="cls-16" cx="95.17" cy="194.11" rx="0.12" ry="0.04" transform="translate(-105.82 273.73) rotate(-85.49)"/><ellipse class="cls-16" cx="95.37" cy="192.16" rx="0.12" ry="0.04" transform="translate(-103.71 272.08) rotate(-85.48)"/><ellipse class="cls-16" cx="94.07" cy="193.22" rx="0.12" ry="0.04" transform="translate(-105.89 271.95) rotate(-85.53)"/><ellipse class="cls-16" cx="94.99" cy="195.75" rx="0.12" ry="0.04" transform="translate(-107.55 275.25) rotate(-85.55)"/><ellipse class="cls-17" cx="98.96" cy="192.98" rx="0.04" ry="0.12" transform="translate(-72 59.55) rotate(-24.88)"/><ellipse class="cls-17" cx="98.36" cy="195.63" rx="0.12" ry="0.04" transform="translate(-117.23 233.9) rotate(-73.37)"/><ellipse class="cls-17" cx="99.13" cy="193.9" rx="0.12" ry="0.04" transform="translate(-114.96 233.74) rotate(-73.46)"/><ellipse class="cls-17" cx="97.76" cy="191.32" rx="0.04" ry="0.12" transform="translate(-116.98 198.22) rotate(-64.78)"/><ellipse class="cls-17" cx="95.17" cy="191.08" rx="0.12" ry="0.04" transform="translate(-76.9 64.75) rotate(-27.24)"/><ellipse class="cls-16" cx="97.3" cy="195.87" rx="0.04" ry="0.12" transform="translate(-31.26 18.94) rotate(-9.59)"/><ellipse class="cls-16" cx="97.36" cy="197.97" rx="3.02" ry="3.1"/><ellipse class="cls-7" cx="97.06" cy="198.17" rx="2.65" ry="2.73"/><ellipse class="cls-16" cx="97.05" cy="199.38" rx="0.12" ry="0.04" transform="translate(-109.64 279.69) rotate(-85.28)"/><ellipse class="cls-16" cx="97.15" cy="197.46" rx="0.04" ry="0.12" transform="translate(-19.54 10.88) rotate(-5.83)"/><ellipse class="cls-16" cx="97.41" cy="195.99" rx="0.04" ry="0.12" transform="translate(-18.03 10.05) rotate(-5.4)"/><ellipse class="cls-16" cx="98.02" cy="198.38" rx="0.04" ry="0.12" transform="translate(-31.36 18.87) rotate(-9.49)"/><ellipse class="cls-16" cx="98.36" cy="196.76" rx="0.04" ry="0.12" transform="translate(-30.89 18.76) rotate(-9.42)"/><ellipse class="cls-16" cx="98.07" cy="200.11" rx="0.12" ry="0.04" transform="translate(-124.39 213.35) rotate(-67.3)"/><ellipse class="cls-16" cx="99.11" cy="198.72" rx="0.12" ry="0.04" transform="translate(-117.11 249.31) rotate(-76.66)"/><ellipse class="cls-16" cx="96.17" cy="198.48" rx="0.12" ry="0.04" transform="translate(-109.13 279.07) rotate(-85.58)"/><ellipse class="cls-16" cx="96.37" cy="196.52" rx="0.12" ry="0.04" transform="translate(-107.1 277.2) rotate(-85.51)"/><ellipse class="cls-16" cx="95.06" cy="197.58" rx="0.12" ry="0.04" transform="translate(-109.56 276.36) rotate(-85.36)"/><ellipse class="cls-16" cx="95.98" cy="200.11" rx="0.12" ry="0.04" transform="translate(-110.98 280.26) rotate(-85.55)"/><ellipse class="cls-17" cx="99.96" cy="197.34" rx="0.04" ry="0.12" transform="translate(-73.95 60.62) rotate(-24.96)"/><ellipse class="cls-17" cx="99.36" cy="199.99" rx="0.12" ry="0.04" transform="translate(-120.72 237.9) rotate(-73.35)"/><ellipse class="cls-17" cx="100.12" cy="198.26" rx="0.12" ry="0.04" transform="translate(-118.42 237.91) rotate(-73.49)"/><ellipse class="cls-17" cx="98.75" cy="195.68" rx="0.04" ry="0.12" transform="translate(-120.35 201.99) rotate(-64.87)"/><ellipse class="cls-17" cx="96.17" cy="195.44" rx="0.12" ry="0.04" transform="translate(-78.18 64.87) rotate(-26.97)"/><g class="cls-10"><path class="cls-11" d="M93.38,210.49a2.59,2.59,0,0,1,.74-.55,4.74,4.74,0,0,1,4.38.1,1.31,1.31,0,0,1,.68,1.41,3.63,3.63,0,0,1,1.48.53c1.1.74.92,1.89-.4,2.57a4,4,0,0,1-.65.26c.16.6-.21,1.25-1.08,1.7a4.74,4.74,0,0,1-4.38-.1,2.22,2.22,0,0,1-.27-.21,5,5,0,0,1-3.77.12l-2.32,1.21-.07,0a1,1,0,0,1-.79-.15c-.26-.18-.31-.41-.09-.52l2.34-1.22c-.55-.68-.29-1.54.71-2.12l-.22-.13c-1.1-.74-.92-1.89.4-2.58A5,5,0,0,1,93.38,210.49Z"/></g><path class="cls-12" d="M86.42,207.3h1.63v9.85h0a56.59,56.59,0,0,0-1.59-9Z"/><polyline class="cls-12" points="86.6 208.45 86.54 204.6 87.99 204.6 88.05 211.8"/><path class="cls-13" d="M86.42,208A57.82,57.82,0,0,1,88,217.15H86.43Z"/><path class="cls-12" d="M88.46,217.15a.55.55,0,0,1,0,.14l-.17-.58A.66.66,0,0,1,88.46,217.15Z"/><path class="cls-13" d="M87.25,216.32a1.12,1.12,0,0,1,.88.39l.14.58a1,1,0,0,1-1,.69.85.85,0,1,1,0-1.66Z"/><ellipse class="cls-14" cx="87.56" cy="216.47" rx="0.69" ry="0.03" transform="translate(-130.2 300.76) rotate(-89.14)"/><ellipse class="cls-14" cx="86.68" cy="214.31" rx="1.15" ry="0.05" transform="translate(-128.61 298.54) rotate(-89.35)"/><ellipse class="cls-15" cx="87.92" cy="213.53" rx="0.03" ry="0.69"/><ellipse class="cls-16" cx="87.32" cy="203.67" rx="0.04" ry="0.12" transform="translate(-31.96 16.91) rotate(-9.36)"/><ellipse class="cls-16" cx="87.39" cy="205.77" rx="3.02" ry="3.1"/><ellipse class="cls-7" cx="87.08" cy="205.97" rx="2.65" ry="2.73"/><ellipse class="cls-16" cx="87.07" cy="207.18" rx="0.12" ry="0.04" transform="translate(-126.5 277.12) rotate(-85.34)"/><ellipse class="cls-16" cx="87.18" cy="205.26" rx="0.04" ry="0.12" transform="translate(-20.42 9.93) rotate(-5.84)"/><ellipse class="cls-16" cx="87.44" cy="203.79" rx="0.04" ry="0.12" transform="matrix(1, -0.1, 0.1, 1, -18.97, 9.23)"/><ellipse class="cls-16" cx="88.05" cy="206.18" rx="0.04" ry="0.12" transform="translate(-32.52 17.17) rotate(-9.41)"/><ellipse class="cls-16" cx="88.39" cy="204.56" rx="0.04" ry="0.12" transform="translate(-32.36 17.27) rotate(-9.44)"/><ellipse class="cls-16" cx="88.1" cy="207.91" rx="0.12" ry="0.04" transform="translate(-137.71 208.79) rotate(-67.26)"/><ellipse class="cls-16" cx="89.14" cy="206.52" rx="0.12" ry="0.04" transform="translate(-132.3 246.03) rotate(-76.77)"/><ellipse class="cls-16" cx="86.19" cy="206.28" rx="0.12" ry="0.04" transform="translate(-126.09 276.38) rotate(-85.6)"/><ellipse class="cls-16" cx="86.39" cy="204.32" rx="0.12" ry="0.04" transform="matrix(0.08, -1, 1, 0.08, -124, 274.65)"/><ellipse class="cls-16" cx="85.09" cy="205.38" rx="0.12" ry="0.04" transform="translate(-126.26 274.31) rotate(-85.56)"/><ellipse class="cls-16" cx="86" cy="207.91" rx="0.12" ry="0.04" transform="translate(-127.91 277.66) rotate(-85.59)"/><ellipse class="cls-17" cx="89.98" cy="205.14" rx="0.04" ry="0.12" transform="translate(-77.33 56.2) rotate(-24.64)"/><ellipse class="cls-17" cx="89.38" cy="207.79" rx="0.12" ry="0.04" transform="translate(-135.34 233.62) rotate(-73.28)"/><ellipse class="cls-17" cx="90.15" cy="206.06" rx="0.12" ry="0.04" transform="translate(-133.06 233.75) rotate(-73.45)"/><ellipse class="cls-17" cx="88.78" cy="203.48" rx="0.04" ry="0.12" transform="translate(-133.14 197.26) rotate(-64.82)"/><ellipse class="cls-17" cx="86.19" cy="203.24" rx="0.12" ry="0.04" transform="translate(-83.5 62.03) rotate(-27.25)"/><ellipse class="cls-16" cx="84" cy="200.74" rx="0.04" ry="0.12" transform="translate(-31.52 16.33) rotate(-9.36)"/><ellipse class="cls-16" cx="84.07" cy="202.84" rx="3.02" ry="3.1"/><ellipse class="cls-7" cx="83.76" cy="203.04" rx="2.65" ry="2.73"/><ellipse class="cls-16" cx="83.75" cy="204.25" rx="0.12" ry="0.04" transform="translate(-126.64 271.1) rotate(-85.33)"/><ellipse class="cls-16" cx="83.86" cy="202.33" rx="0.04" ry="0.12" transform="translate(-19.61 9.29) rotate(-5.68)"/><ellipse class="cls-16" cx="84.12" cy="200.86" rx="0.04" ry="0.12" transform="translate(-18.84 8.98) rotate(-5.49)"/><ellipse class="cls-16" cx="84.73" cy="203.25" rx="0.04" ry="0.12" transform="translate(-32.56 16.88) rotate(-9.55)"/><ellipse class="cls-16" cx="85.07" cy="201.63" rx="0.04" ry="0.12" transform="translate(-31.71 16.55) rotate(-9.38)"/><ellipse class="cls-16" cx="84.78" cy="204.98" rx="0.12" ry="0.04" transform="translate(-137.04 203.25) rotate(-67.08)"/><ellipse class="cls-16" cx="85.82" cy="203.59" rx="0.12" ry="0.04" transform="translate(-131.96 240.85) rotate(-76.85)"/><ellipse class="cls-16" cx="82.87" cy="203.35" rx="0.12" ry="0.04" transform="translate(-126.44 269.72) rotate(-85.42)"/><ellipse class="cls-16" cx="83.07" cy="201.39" rx="0.12" ry="0.04" transform="translate(-123.96 269.2) rotate(-85.72)"/><ellipse class="cls-16" cx="81.77" cy="202.45" rx="0.12" ry="0.04" transform="translate(-126.4 268.33) rotate(-85.57)"/><ellipse class="cls-16" cx="82.68" cy="204.98" rx="0.12" ry="0.04" transform="translate(-128.16 271.31) rotate(-85.49)"/><ellipse class="cls-17" cx="86.66" cy="202.21" rx="0.04" ry="0.12" transform="translate(-77.45 55.7) rotate(-25.05)"/><ellipse class="cls-17" cx="86.06" cy="204.86" rx="0.12" ry="0.04" transform="translate(-134.91 228.23) rotate(-73.25)"/><ellipse class="cls-17" cx="86.82" cy="203.13" rx="0.12" ry="0.04" transform="translate(-132.62 228.48) rotate(-73.45)"/><ellipse class="cls-17" cx="85.46" cy="200.55" rx="0.04" ry="0.12" transform="translate(-132.41 192.93) rotate(-64.92)"/><ellipse class="cls-17" cx="82.87" cy="200.31" rx="0.12" ry="0.04" transform="translate(-82.09 59.67) rotate(-27.08)"/><ellipse class="cls-16" cx="90.78" cy="200.74" rx="0.04" ry="0.12" transform="matrix(0.99, -0.16, 0.16, 0.99, -31.68, 17.6)"/><ellipse class="cls-16" cx="90.85" cy="202.84" rx="3.02" ry="3.1"/><ellipse class="cls-7" cx="90.55" cy="203.04" rx="2.65" ry="2.73"/><ellipse class="cls-16" cx="90.53" cy="204.25" rx="0.12" ry="0.04" transform="translate(-120.38 277.95) rotate(-85.35)"/><ellipse class="cls-16" cx="90.64" cy="202.33" rx="0.04" ry="0.12" transform="translate(-19.55 9.95) rotate(-5.67)"/><ellipse class="cls-16" cx="90.9" cy="200.86" rx="0.04" ry="0.12" transform="translate(-18.9 9.68) rotate(-5.52)"/><ellipse class="cls-16" cx="91.51" cy="203.25" rx="0.04" ry="0.12" transform="translate(-32.31 17.9) rotate(-9.51)"/><ellipse class="cls-16" cx="91.85" cy="201.63" rx="0.04" ry="0.12" transform="translate(-31.67 17.69) rotate(-9.39)"/><ellipse class="cls-16" cx="91.56" cy="204.98" rx="0.12" ry="0.04" transform="translate(-132.9 209.49) rotate(-67.08)"/><ellipse class="cls-16" cx="92.6" cy="203.59" rx="0.12" ry="0.04" transform="translate(-126.75 247.28) rotate(-76.81)"/><ellipse class="cls-16" cx="89.65" cy="203.35" rx="0.12" ry="0.04" transform="translate(-120.17 276.56) rotate(-85.44)"/><ellipse class="cls-16" cx="89.85" cy="201.39" rx="0.12" ry="0.04" transform="translate(-117.7 275.91) rotate(-85.7)"/><ellipse class="cls-16" cx="88.55" cy="202.45" rx="0.12" ry="0.04" transform="translate(-120.13 275.12) rotate(-85.57)"/><ellipse class="cls-16" cx="89.47" cy="204.98" rx="0.12" ry="0.04" transform="translate(-121.86 278.23) rotate(-85.54)"/><ellipse class="cls-17" cx="93.45" cy="202.21" rx="0.04" ry="0.12" transform="translate(-76.52 58.22) rotate(-24.93)"/><ellipse class="cls-17" cx="92.84" cy="204.86" rx="0.12" ry="0.04" transform="translate(-130.14 234.3) rotate(-73.14)"/><ellipse class="cls-17" cx="93.61" cy="203.13" rx="0.12" ry="0.04" transform="translate(-127.73 235.29) rotate(-73.53)"/><ellipse class="cls-17" cx="92.24" cy="200.55" rx="0.04" ry="0.12" transform="translate(-128.51 199.4) rotate(-65)"/><ellipse class="cls-17" cx="89.65" cy="200.31" rx="0.12" ry="0.04" transform="translate(-82.33 63.98) rotate(-27.48)"/><ellipse class="cls-16" cx="89.42" cy="197.33" rx="0.04" ry="0.12" transform="translate(-31.29 17.43) rotate(-9.48)"/><ellipse class="cls-16" cx="89.49" cy="199.43" rx="3.02" ry="3.1"/><ellipse class="cls-7" cx="89.18" cy="199.63" rx="2.65" ry="2.73"/><ellipse class="cls-16" cx="89.17" cy="200.84" rx="0.12" ry="0.04" transform="translate(-118.36 273.07) rotate(-85.25)"/><ellipse class="cls-16" cx="89.28" cy="198.92" rx="0.04" ry="0.12" transform="translate(-20.02 10.26) rotate(-5.91)"/><ellipse class="cls-16" cx="89.54" cy="197.45" rx="0.04" ry="0.12" transform="translate(-18.84 9.68) rotate(-5.6)"/><ellipse class="cls-16" cx="90.15" cy="199.84" rx="0.04" ry="0.12" transform="translate(-32.02 17.8) rotate(-9.59)"/><ellipse class="cls-16" cx="90.49" cy="198.22" rx="0.04" ry="0.12" transform="translate(-31.75 17.84) rotate(-9.59)"/><ellipse class="cls-16" cx="90.2" cy="201.57" rx="0.12" ry="0.04" transform="translate(-130.58 206.53) rotate(-67.18)"/><ellipse class="cls-16" cx="91.24" cy="200.17" rx="0.12" ry="0.04" transform="translate(-124.53 243.03) rotate(-76.73)"/><ellipse class="cls-16" cx="88.29" cy="199.93" rx="0.12" ry="0.04" transform="translate(-117.77 272.78) rotate(-85.64)"/><ellipse class="cls-16" cx="88.49" cy="197.98" rx="0.12" ry="0.04" transform="translate(-115.79 270.76) rotate(-85.53)"/><ellipse class="cls-16" cx="87.19" cy="199.04" rx="0.12" ry="0.04" transform="translate(-118.11 270.26) rotate(-85.48)"/><ellipse class="cls-16" cx="88.11" cy="201.57" rx="0.12" ry="0.04" transform="translate(-119.58 274.08) rotate(-85.64)"/><ellipse class="cls-17" cx="92.08" cy="198.8" rx="0.04" ry="0.12" transform="translate(-75.02 57.11) rotate(-24.85)"/><ellipse class="cls-17" cx="91.48" cy="201.45" rx="0.12" ry="0.04" transform="translate(-127.72 231.46) rotate(-73.37)"/><ellipse class="cls-17" cx="92.25" cy="199.72" rx="0.12" ry="0.04" transform="translate(-125.44 231.46) rotate(-73.51)"/><ellipse class="cls-17" cx="90.88" cy="197.14" rx="0.04" ry="0.12" transform="translate(-126.2 196.5) rotate(-65.08)"/><ellipse class="cls-17" cx="88.29" cy="196.9" rx="0.12" ry="0.04" transform="translate(-81.05 63.15) rotate(-27.54)"/><ellipse class="cls-16" cx="85.52" cy="196.8" rx="0.04" ry="0.12" transform="translate(-31.33 16.83) rotate(-9.51)"/><ellipse class="cls-16" cx="85.58" cy="198.9" rx="3.02" ry="3.1"/><ellipse class="cls-7" cx="85.28" cy="199.1" rx="2.65" ry="2.73"/><ellipse class="cls-16" cx="85.27" cy="200.31" rx="0.12" ry="0.04" transform="translate(-121.32 268.98) rotate(-85.33)"/><ellipse class="cls-16" cx="85.37" cy="198.39" rx="0.04" ry="0.12" transform="matrix(0.99, -0.1, 0.1, 0.99, -19.6, 9.64)"/><ellipse class="cls-16" cx="85.63" cy="196.92" rx="0.04" ry="0.12" transform="translate(-18.75 9.26) rotate(-5.58)"/><ellipse class="cls-16" cx="86.24" cy="199.31" rx="0.04" ry="0.12" transform="matrix(0.99, -0.17, 0.17, 0.99, -31.88, 17.08)"/><ellipse class="cls-16" cx="86.58" cy="197.69" rx="0.04" ry="0.12" transform="translate(-31.62 17.12) rotate(-9.56)"/><ellipse class="cls-16" cx="86.29" cy="201.04" rx="0.12" ry="0.04" transform="translate(-132.48 202.29) rotate(-67.1)"/><ellipse class="cls-16" cx="87.33" cy="199.64" rx="0.12" ry="0.04" transform="translate(-126.89 239.55) rotate(-76.93)"/><ellipse class="cls-16" cx="84.39" cy="199.4" rx="0.12" ry="0.04" transform="translate(-121.03 267.85) rotate(-85.49)"/><ellipse class="cls-16" cx="84.59" cy="197.45" rx="0.12" ry="0.04" transform="translate(-118.92 266.2) rotate(-85.48)"/><ellipse class="cls-16" cx="83.28" cy="198.51" rx="0.12" ry="0.04" transform="translate(-121.11 266.08) rotate(-85.53)"/><ellipse class="cls-16" cx="84.2" cy="201.04" rx="0.12" ry="0.04" transform="translate(-122.77 269.37) rotate(-85.55)"/><ellipse class="cls-17" cx="88.18" cy="198.27" rx="0.04" ry="0.12" transform="translate(-75.23 55.5) rotate(-24.88)"/><ellipse class="cls-17" cx="87.58" cy="200.92" rx="0.12" ry="0.04" transform="translate(-130 227.34) rotate(-73.37)"/><ellipse class="cls-17" cx="88.34" cy="199.19" rx="0.12" ry="0.04" transform="translate(-127.75 227.18) rotate(-73.46)"/><ellipse class="cls-17" cx="86.97" cy="196.61" rx="0.04" ry="0.12" transform="translate(-127.95 191.5) rotate(-64.78)"/><ellipse class="cls-17" cx="84.39" cy="196.37" rx="0.12" ry="0.04" transform="translate(-80.52 60.4) rotate(-27.24)"/><ellipse class="cls-16" cx="86.51" cy="201.16" rx="0.04" ry="0.12" transform="translate(-32.29 17.22) rotate(-9.59)"/><ellipse class="cls-16" cx="86.58" cy="203.26" rx="3.02" ry="3.1"/><ellipse class="cls-7" cx="86.27" cy="203.46" rx="2.65" ry="2.73"/><ellipse class="cls-16" cx="86.26" cy="204.67" rx="0.12" ry="0.04" transform="translate(-124.81 273.8) rotate(-85.28)"/><ellipse class="cls-16" cx="86.37" cy="202.75" rx="0.04" ry="0.12" transform="translate(-20.14 9.82) rotate(-5.83)"/><ellipse class="cls-16" cx="86.63" cy="201.28" rx="0.04" ry="0.12" transform="translate(-18.57 9.05) rotate(-5.4)"/><ellipse class="cls-16" cx="87.24" cy="203.67" rx="0.04" ry="0.12" transform="translate(-32.38 17.17) rotate(-9.49)"/><ellipse class="cls-16" cx="87.58" cy="202.05" rx="0.04" ry="0.12" transform="translate(-31.9 17.07) rotate(-9.42)"/><ellipse class="cls-16" cx="87.28" cy="205.4" rx="0.12" ry="0.04" transform="translate(-135.89 206.65) rotate(-67.3)"/><ellipse class="cls-16" cx="88.33" cy="204.01" rx="0.12" ry="0.04" transform="translate(-130.56 242.88) rotate(-76.66)"/><ellipse class="cls-16" cx="85.38" cy="203.77" rx="0.12" ry="0.04" transform="translate(-124.36 273.2) rotate(-85.58)"/><ellipse class="cls-16" cx="85.58" cy="201.81" rx="0.12" ry="0.04" transform="translate(-122.31 271.33) rotate(-85.51)"/><ellipse class="cls-16" cx="84.28" cy="202.87" rx="0.12" ry="0.04" transform="translate(-124.74 270.47) rotate(-85.36)"/><ellipse class="cls-16" cx="85.19" cy="205.4" rx="0.12" ry="0.04" transform="translate(-126.2 274.39) rotate(-85.55)"/><ellipse class="cls-17" cx="89.17" cy="202.63" rx="0.04" ry="0.12" transform="translate(-77.19 56.57) rotate(-24.96)"/><ellipse class="cls-17" cx="88.57" cy="205.28" rx="0.12" ry="0.04" transform="translate(-133.48 231.34) rotate(-73.35)"/><ellipse class="cls-17" cx="89.33" cy="203.55" rx="0.12" ry="0.04" transform="translate(-131.21 231.36) rotate(-73.49)"/><ellipse class="cls-17" cx="87.97" cy="200.97" rx="0.04" ry="0.12" transform="translate(-131.34 195.27) rotate(-64.87)"/><ellipse class="cls-17" cx="85.38" cy="200.73" rx="0.12" ry="0.04" transform="translate(-81.75 60.55) rotate(-26.97)"/><g class="cls-10"><path class="cls-11" d="M202.67,153.54a2.59,2.59,0,0,1,.74-.55,4.74,4.74,0,0,1,4.38.1,1.31,1.31,0,0,1,.68,1.41,3.63,3.63,0,0,1,1.48.53c1.1.74.92,1.89-.4,2.57a4,4,0,0,1-.65.26c.16.6-.21,1.25-1.08,1.7a4.74,4.74,0,0,1-4.38-.1,2.22,2.22,0,0,1-.27-.21,5,5,0,0,1-3.77.12l-2.32,1.21-.07,0a1,1,0,0,1-.79-.15c-.26-.18-.31-.41-.09-.52l2.34-1.22c-.55-.68-.29-1.54.71-2.12l-.22-.13c-1.1-.74-.92-1.89.4-2.58A5,5,0,0,1,202.67,153.54Z"/></g><path class="cls-12" d="M195.71,150.34h1.63v9.85h0a56.59,56.59,0,0,0-1.59-9Z"/><polyline class="cls-12" points="195.88 151.49 195.82 147.65 197.28 147.65 197.34 154.85"/><path class="cls-13" d="M195.71,151.07a57.82,57.82,0,0,1,1.59,9.12h-1.58Z"/><path class="cls-12" d="M197.75,160.2a.55.55,0,0,1,0,.14l-.17-.58A.66.66,0,0,1,197.75,160.2Z"/><path class="cls-13" d="M196.54,159.36a1.12,1.12,0,0,1,.88.39l.14.58a1,1,0,0,1-1,.69.85.85,0,1,1,0-1.66Z"/><ellipse class="cls-14" cx="196.85" cy="159.51" rx="0.69" ry="0.03" transform="translate(34.39 353.93) rotate(-89.14)"/><ellipse class="cls-14" cx="195.97" cy="157.35" rx="1.15" ry="0.05" transform="translate(36.38 351.51) rotate(-89.35)"/><ellipse class="cls-15" cx="197.21" cy="156.58" rx="0.03" ry="0.69"/><ellipse class="cls-16" cx="196.61" cy="146.71" rx="0.04" ry="0.12" transform="translate(-21.24 33.93) rotate(-9.36)"/><ellipse class="cls-16" cx="196.67" cy="148.81" rx="3.02" ry="3.1"/><ellipse class="cls-7" cx="196.37" cy="149.01" rx="2.65" ry="2.73"/><ellipse class="cls-16" cx="196.36" cy="150.22" rx="0.12" ry="0.04" transform="translate(30.67 333.72) rotate(-85.34)"/><ellipse class="cls-16" cx="196.47" cy="148.3" rx="0.04" ry="0.12" transform="translate(-14.06 20.75) rotate(-5.84)"/><ellipse class="cls-16" cx="196.72" cy="146.83" rx="0.04" ry="0.12" transform="translate(-13.06 19.36) rotate(-5.45)"/><ellipse class="cls-16" cx="197.34" cy="149.22" rx="0.04" ry="0.12" transform="translate(-21.74 34.27) rotate(-9.41)"/><ellipse class="cls-16" cx="197.68" cy="147.6" rx="0.04" ry="0.12" transform="translate(-21.53 34.42) rotate(-9.44)"/><ellipse class="cls-16" cx="197.38" cy="150.95" rx="0.12" ry="0.04" transform="translate(-18.13 274.65) rotate(-67.26)"/><ellipse class="cls-16" cx="198.42" cy="149.56" rx="0.12" ry="0.04" transform="translate(7.43 308.5) rotate(-76.77)"/><ellipse class="cls-16" cx="195.48" cy="149.32" rx="0.12" ry="0.04" transform="translate(31.59 332.76) rotate(-85.6)"/><ellipse class="cls-16" cx="195.68" cy="147.36" rx="0.12" ry="0.04" transform="matrix(0.08, -1, 1, 0.08, 33.62, 331.06)"/><ellipse class="cls-16" cx="194.38" cy="148.42" rx="0.12" ry="0.04" transform="translate(31.35 330.73) rotate(-85.56)"/><ellipse class="cls-16" cx="195.29" cy="150.95" rx="0.12" ry="0.04" transform="translate(29.76 334.05) rotate(-85.59)"/><ellipse class="cls-17" cx="199.27" cy="148.18" rx="0.04" ry="0.12" transform="translate(-43.63 96.57) rotate(-24.64)"/><ellipse class="cls-17" cx="198.67" cy="150.83" rx="0.12" ry="0.04" transform="translate(-2.94 297.71) rotate(-73.28)"/><ellipse class="cls-17" cx="199.43" cy="149.1" rx="0.12" ry="0.04" transform="translate(-0.31 297.78) rotate(-73.45)"/><ellipse class="cls-17" cx="198.06" cy="146.52" rx="0.04" ry="0.12" transform="translate(-18.8 263.44) rotate(-64.82)"/><ellipse class="cls-17" cx="195.48" cy="146.29" rx="0.12" ry="0.04" transform="translate(-45.29 105.75) rotate(-27.25)"/><ellipse class="cls-16" cx="193.29" cy="143.78" rx="0.04" ry="0.12" transform="translate(-20.81 33.34) rotate(-9.36)"/><ellipse class="cls-16" cx="193.35" cy="145.88" rx="3.02" ry="3.1"/><ellipse class="cls-7" cx="193.05" cy="146.08" rx="2.65" ry="2.73"/><ellipse class="cls-16" cx="193.04" cy="147.29" rx="0.12" ry="0.04" transform="translate(30.52 327.7) rotate(-85.33)"/><ellipse class="cls-16" cx="193.14" cy="145.37" rx="0.04" ry="0.12" transform="translate(-13.44 19.83) rotate(-5.68)"/><ellipse class="cls-16" cx="193.4" cy="143.9" rx="0.04" ry="0.12" transform="translate(-12.89 19.18) rotate(-5.49)"/><ellipse class="cls-16" cx="194.02" cy="146.29" rx="0.04" ry="0.12" transform="translate(-21.59 34.23) rotate(-9.55)"/><ellipse class="cls-16" cx="194.36" cy="144.68" rx="0.04" ry="0.12" transform="translate(-20.97 33.6) rotate(-9.38)"/><ellipse class="cls-16" cx="194.06" cy="148.03" rx="0.12" ry="0.04" transform="translate(-17.85 269.13) rotate(-67.08)"/><ellipse class="cls-16" cx="195.1" cy="146.63" rx="0.12" ry="0.04" transform="translate(7.94 303.27) rotate(-76.85)"/><ellipse class="cls-16" cx="192.16" cy="146.39" rx="0.12" ry="0.04" transform="translate(30.89 326.25) rotate(-85.42)"/><ellipse class="cls-16" cx="192.36" cy="144.44" rx="0.12" ry="0.04" transform="matrix(0.07, -1, 1, 0.07, 33.97, 325.48)"/><ellipse class="cls-16" cx="191.06" cy="145.5" rx="0.12" ry="0.04" transform="translate(31.23 324.73) rotate(-85.57)"/><ellipse class="cls-16" cx="191.97" cy="148.03" rx="0.12" ry="0.04" transform="translate(29.32 327.77) rotate(-85.49)"/><ellipse class="cls-17" cx="195.95" cy="145.25" rx="0.04" ry="0.12" transform="translate(-43.07 96.61) rotate(-25.05)"/><ellipse class="cls-17" cx="195.35" cy="147.9" rx="0.12" ry="0.04" transform="translate(-2.58 292.34) rotate(-73.25)"/><ellipse class="cls-17" cx="196.11" cy="146.17" rx="0.12" ry="0.04" transform="translate(0.12 292.51) rotate(-73.45)"/><ellipse class="cls-17" cx="194.74" cy="143.6" rx="0.04" ry="0.12" transform="translate(-17.87 259.1) rotate(-64.92)"/><ellipse class="cls-17" cx="192.16" cy="143.36" rx="0.12" ry="0.04" transform="translate(-44.19 103.17) rotate(-27.08)"/><ellipse class="cls-16" cx="200.07" cy="143.78" rx="0.04" ry="0.12" transform="translate(-20.86 34.74) rotate(-9.43)"/><ellipse class="cls-16" cx="200.13" cy="145.88" rx="3.02" ry="3.1"/><ellipse class="cls-7" cx="199.83" cy="146.08" rx="2.65" ry="2.73"/><ellipse class="cls-16" cx="199.82" cy="147.29" rx="0.12" ry="0.04" transform="translate(36.83 334.53) rotate(-85.35)"/><ellipse class="cls-16" cx="199.93" cy="145.37" rx="0.04" ry="0.12" transform="translate(-13.38 20.46) rotate(-5.67)"/><ellipse class="cls-16" cx="200.19" cy="143.9" rx="0.04" ry="0.12" transform="translate(-12.91 19.92) rotate(-5.52)"/><ellipse class="cls-16" cx="200.8" cy="146.29" rx="0.04" ry="0.12" transform="translate(-21.4 35.17) rotate(-9.51)"/><ellipse class="cls-16" cx="201.14" cy="144.68" rx="0.04" ry="0.12" transform="translate(-20.91 34.76) rotate(-9.39)"/><ellipse class="cls-16" cx="200.84" cy="148.03" rx="0.12" ry="0.04" transform="translate(-13.71 275.38) rotate(-67.08)"/><ellipse class="cls-16" cx="201.89" cy="146.63" rx="0.12" ry="0.04" transform="translate(13.05 309.73) rotate(-76.81)"/><ellipse class="cls-16" cx="198.94" cy="146.39" rx="0.12" ry="0.04" transform="translate(37.2 333.07) rotate(-85.44)"/><ellipse class="cls-16" cx="199.14" cy="144.44" rx="0.12" ry="0.04" transform="translate(40.19 332.2) rotate(-85.7)"/><ellipse class="cls-16" cx="197.84" cy="145.5" rx="0.12" ry="0.04" transform="translate(37.51 331.52) rotate(-85.57)"/><ellipse class="cls-16" cx="198.75" cy="148.03" rx="0.12" ry="0.04" transform="translate(35.71 334.66) rotate(-85.54)"/><ellipse class="cls-17" cx="202.73" cy="145.25" rx="0.04" ry="0.12" transform="translate(-42.33 98.98) rotate(-24.93)"/><ellipse class="cls-17" cx="202.13" cy="147.9" rx="0.12" ry="0.04" transform="translate(1.96 298.45) rotate(-73.14)"/><ellipse class="cls-17" cx="202.89" cy="146.17" rx="0.12" ry="0.04" transform="translate(5.18 299.28) rotate(-73.53)"/><ellipse class="cls-17" cx="201.53" cy="143.6" rx="0.04" ry="0.12" transform="translate(-13.78 265.56) rotate(-65)"/><ellipse class="cls-17" cx="198.94" cy="143.36" rx="0.12" ry="0.04" transform="translate(-43.71 107.99) rotate(-27.48)"/><ellipse class="cls-16" cx="198.71" cy="140.37" rx="0.04" ry="0.12" transform="translate(-20.41 34.65) rotate(-9.48)"/><ellipse class="cls-16" cx="198.77" cy="142.47" rx="3.02" ry="3.1"/><ellipse class="cls-7" cx="198.47" cy="142.67" rx="2.65" ry="2.73"/><ellipse class="cls-16" cx="198.46" cy="143.88" rx="0.12" ry="0.04" transform="translate(38.64 329.74) rotate(-85.25)"/><ellipse class="cls-16" cx="198.57" cy="141.96" rx="0.04" ry="0.12" transform="translate(-13.57 21.22) rotate(-5.91)"/><ellipse class="cls-16" cx="198.82" cy="140.49" rx="0.04" ry="0.12" transform="translate(-12.76 20.07) rotate(-5.6)"/><ellipse class="cls-16" cx="199.44" cy="142.88" rx="0.04" ry="0.12" transform="translate(-21.01 35.21) rotate(-9.59)"/><ellipse class="cls-16" cx="199.78" cy="141.26" rx="0.04" ry="0.12" transform="translate(-20.74 35.24) rotate(-9.59)"/><ellipse class="cls-16" cx="199.48" cy="144.61" rx="0.12" ry="0.04" transform="translate(-11.17 272.4) rotate(-67.18)"/><ellipse class="cls-16" cx="200.53" cy="143.22" rx="0.12" ry="0.04" transform="translate(15.1 305.51) rotate(-76.73)"/><ellipse class="cls-16" cx="197.58" cy="142.98" rx="0.12" ry="0.04" transform="matrix(0.08, -1, 1, 0.08, 40, 329.12)"/><ellipse class="cls-16" cx="197.78" cy="141.02" rx="0.12" ry="0.04" transform="translate(41.76 327.2) rotate(-85.53)"/><ellipse class="cls-16" cx="196.48" cy="142.08" rx="0.12" ry="0.04" transform="translate(39.34 326.74) rotate(-85.48)"/><ellipse class="cls-16" cx="197.39" cy="144.61" rx="0.12" ry="0.04" transform="translate(38.18 330.43) rotate(-85.64)"/><ellipse class="cls-17" cx="201.37" cy="141.84" rx="0.04" ry="0.12" transform="translate(-40.96 97.77) rotate(-24.85)"/><ellipse class="cls-17" cx="200.77" cy="144.49" rx="0.12" ry="0.04" transform="translate(4.87 295.52) rotate(-73.37)"/><ellipse class="cls-17" cx="201.53" cy="142.76" rx="0.12" ry="0.04" transform="translate(7.43 295.46) rotate(-73.51)"/><ellipse class="cls-17" cx="200.17" cy="140.18" rx="0.04" ry="0.12" transform="translate(-11.3 262.65) rotate(-65.08)"/><ellipse class="cls-17" cx="197.58" cy="139.94" rx="0.12" ry="0.04" transform="translate(-42.32 107.23) rotate(-27.54)"/><ellipse class="cls-16" cx="194.8" cy="139.84" rx="0.04" ry="0.12" transform="translate(-20.42 34.1) rotate(-9.51)"/><ellipse class="cls-16" cx="194.87" cy="141.94" rx="3.02" ry="3.1"/><ellipse class="cls-7" cx="194.57" cy="142.14" rx="2.65" ry="2.73"/><ellipse class="cls-16" cx="194.55" cy="143.35" rx="0.12" ry="0.04" transform="translate(35.84 325.59) rotate(-85.33)"/><ellipse class="cls-16" cx="194.66" cy="141.43" rx="0.04" ry="0.12" transform="matrix(0.99, -0.1, 0.1, 0.99, -13.29, 20.39)"/><ellipse class="cls-16" cx="194.92" cy="139.96" rx="0.04" ry="0.12" transform="translate(-12.69 19.62) rotate(-5.58)"/><ellipse class="cls-16" cx="195.53" cy="142.35" rx="0.04" ry="0.12" transform="translate(-20.91 34.42) rotate(-9.55)"/><ellipse class="cls-16" cx="195.87" cy="140.73" rx="0.04" ry="0.12" transform="translate(-20.65 34.47) rotate(-9.56)"/><ellipse class="cls-16" cx="195.58" cy="144.08" rx="0.12" ry="0.04" transform="translate(-13.26 268.17) rotate(-67.1)"/><ellipse class="cls-16" cx="196.62" cy="142.69" rx="0.12" ry="0.04" transform="translate(13.15 301.93) rotate(-76.93)"/><ellipse class="cls-16" cx="193.67" cy="142.45" rx="0.12" ry="0.04" transform="translate(36.44 324.32) rotate(-85.49)"/><ellipse class="cls-16" cx="193.87" cy="140.49" rx="0.12" ry="0.04" transform="translate(38.53 322.68) rotate(-85.48)"/><ellipse class="cls-16" cx="192.57" cy="141.55" rx="0.12" ry="0.04" transform="translate(36.45 322.51) rotate(-85.53)"/><ellipse class="cls-16" cx="193.49" cy="144.08" rx="0.12" ry="0.04" transform="translate(34.82 325.8) rotate(-85.55)"/><ellipse class="cls-17" cx="197.47" cy="141.31" rx="0.04" ry="0.12" transform="translate(-41.12 96.19) rotate(-24.88)"/><ellipse class="cls-17" cx="196.86" cy="143.96" rx="0.12" ry="0.04" transform="translate(2.59 291.4) rotate(-73.37)"/><ellipse class="cls-17" cx="197.63" cy="142.23" rx="0.12" ry="0.04" transform="translate(5.03 291.2) rotate(-73.46)"/><ellipse class="cls-17" cx="196.26" cy="139.65" rx="0.04" ry="0.12" transform="translate(-13.72 257.68) rotate(-64.78)"/><ellipse class="cls-17" cx="193.67" cy="139.41" rx="0.12" ry="0.04" transform="translate(-42.33 104.1) rotate(-27.24)"/><ellipse class="cls-16" cx="195.8" cy="144.2" rx="0.04" ry="0.12" transform="translate(-21.28 34.62) rotate(-9.59)"/><ellipse class="cls-16" cx="195.86" cy="146.3" rx="3.02" ry="3.1"/><ellipse class="cls-7" cx="195.56" cy="146.5" rx="2.65" ry="2.73"/><ellipse class="cls-16" cx="195.55" cy="147.71" rx="0.12" ry="0.04" transform="translate(32.24 330.45) rotate(-85.28)"/><ellipse class="cls-16" cx="195.65" cy="145.79" rx="0.04" ry="0.12" transform="translate(-13.79 20.62) rotate(-5.83)"/><ellipse class="cls-16" cx="195.91" cy="144.32" rx="0.04" ry="0.12" transform="translate(-12.72 19.09) rotate(-5.4)"/><ellipse class="cls-16" cx="196.52" cy="146.71" rx="0.04" ry="0.12" transform="translate(-21.5 34.41) rotate(-9.49)"/><ellipse class="cls-16" cx="196.87" cy="145.1" rx="0.04" ry="0.12" transform="translate(-21.1 34.2) rotate(-9.42)"/><ellipse class="cls-16" cx="196.57" cy="148.45" rx="0.12" ry="0.04" transform="translate(-16.24 272.49) rotate(-67.3)"/><ellipse class="cls-16" cx="197.61" cy="147.05" rx="0.12" ry="0.04" transform="translate(8.93 305.4) rotate(-76.66)"/><ellipse class="cls-16" cx="194.67" cy="146.81" rx="0.12" ry="0.04" transform="translate(33.3 329.59) rotate(-85.58)"/><ellipse class="cls-16" cx="194.87" cy="144.86" rx="0.12" ry="0.04" transform="translate(35.19 327.78) rotate(-85.51)"/><ellipse class="cls-16" cx="193.56" cy="145.92" rx="0.12" ry="0.04" transform="translate(32.48 327.05) rotate(-85.36)"/><ellipse class="cls-16" cx="194.48" cy="148.45" rx="0.12" ry="0.04" transform="translate(31.38 330.81) rotate(-85.55)"/><ellipse class="cls-17" cx="198.46" cy="145.67" rx="0.04" ry="0.12" transform="translate(-42.94 97.37) rotate(-24.96)"/><ellipse class="cls-17" cx="197.86" cy="148.33" rx="0.12" ry="0.04" transform="translate(-0.93 295.4) rotate(-73.35)"/><ellipse class="cls-17" cx="198.62" cy="146.59" rx="0.12" ry="0.04" transform="translate(1.63 295.37) rotate(-73.49)"/><ellipse class="cls-17" cx="197.25" cy="144.02" rx="0.04" ry="0.12" transform="translate(-16.9 261.45) rotate(-64.87)"/><ellipse class="cls-17" cx="194.67" cy="143.78" rx="0.12" ry="0.04" transform="translate(-44.04 103.92) rotate(-26.97)"/><g class="cls-10"><path class="cls-11" d="M192.5,159.13a2.59,2.59,0,0,1,.74-.55,4.74,4.74,0,0,1,4.38.1,1.31,1.31,0,0,1,.68,1.41,3.63,3.63,0,0,1,1.48.53c1.1.74.92,1.89-.4,2.57a4,4,0,0,1-.65.26c.16.6-.21,1.25-1.08,1.7a4.74,4.74,0,0,1-4.38-.1,2.22,2.22,0,0,1-.27-.21,5,5,0,0,1-3.77.12l-2.32,1.21-.07,0a1,1,0,0,1-.79-.15c-.26-.18-.31-.41-.09-.52l2.34-1.22c-.55-.68-.29-1.54.71-2.12l-.22-.13c-1.1-.74-.92-1.89.4-2.58A5,5,0,0,1,192.5,159.13Z"/></g><path class="cls-12" d="M185.54,155.93h1.63v9.85h0a56.59,56.59,0,0,0-1.59-9Z"/><polyline class="cls-12" points="185.72 157.08 185.66 153.24 187.11 153.24 187.17 160.44"/><path class="cls-13" d="M185.54,156.66a57.82,57.82,0,0,1,1.59,9.12h-1.58Z"/><path class="cls-12" d="M187.58,165.79a.55.55,0,0,1,0,.14l-.17-.58A.66.66,0,0,1,187.58,165.79Z"/><path class="cls-13" d="M186.37,165a1.12,1.12,0,0,1,.88.39l.14.58a1,1,0,0,1-1,.69.85.85,0,1,1,0-1.66Z"/><ellipse class="cls-14" cx="186.68" cy="165.1" rx="0.69" ry="0.03" transform="translate(18.79 349.27) rotate(-89.14)"/><ellipse class="cls-14" cx="185.8" cy="162.94" rx="1.15" ry="0.05" transform="translate(20.74 346.87) rotate(-89.35)"/><ellipse class="cls-15" cx="187.04" cy="162.16" rx="0.03" ry="0.69"/><ellipse class="cls-16" cx="186.44" cy="152.3" rx="0.04" ry="0.12" transform="translate(-22.29 32.35) rotate(-9.36)"/><ellipse class="cls-16" cx="186.5" cy="154.4" rx="3.02" ry="3.1"/><ellipse class="cls-7" cx="186.2" cy="154.6" rx="2.65" ry="2.73"/><ellipse class="cls-16" cx="186.19" cy="155.81" rx="0.12" ry="0.04" transform="translate(15.76 328.72) rotate(-85.34)"/><ellipse class="cls-16" cx="186.3" cy="153.89" rx="0.04" ry="0.12" transform="translate(-14.68 19.74) rotate(-5.84)"/><ellipse class="cls-16" cx="186.56" cy="152.42" rx="0.04" ry="0.12" transform="translate(-13.64 18.42) rotate(-5.45)"/><ellipse class="cls-16" cx="187.17" cy="154.81" rx="0.04" ry="0.12" transform="translate(-22.79 32.68) rotate(-9.41)"/><ellipse class="cls-16" cx="187.51" cy="153.19" rx="0.04" ry="0.12" transform="translate(-22.59 32.83) rotate(-9.44)"/><ellipse class="cls-16" cx="187.21" cy="156.54" rx="0.12" ry="0.04" transform="translate(-29.53 268.7) rotate(-67.26)"/><ellipse class="cls-16" cx="188.26" cy="155.15" rx="0.12" ry="0.04" transform="translate(-5.86 302.91) rotate(-76.77)"/><ellipse class="cls-16" cx="185.31" cy="154.91" rx="0.12" ry="0.04" transform="translate(16.63 327.78) rotate(-85.6)"/><ellipse class="cls-16" cx="185.51" cy="152.95" rx="0.12" ry="0.04" transform="matrix(0.08, -1, 1, 0.08, 18.67, 326.08)"/><ellipse class="cls-16" cx="184.21" cy="154.01" rx="0.12" ry="0.04" transform="translate(16.4 325.74) rotate(-85.56)"/><ellipse class="cls-16" cx="185.12" cy="156.54" rx="0.12" ry="0.04" transform="translate(14.8 329.07) rotate(-85.59)"/><ellipse class="cls-17" cx="189.1" cy="153.77" rx="0.04" ry="0.12" transform="translate(-46.89 92.84) rotate(-24.64)"/><ellipse class="cls-17" cx="188.5" cy="156.42" rx="0.12" ry="0.04" transform="translate(-15.54 291.95) rotate(-73.28)"/><ellipse class="cls-17" cx="189.26" cy="154.69" rx="0.12" ry="0.04" transform="translate(-12.94 292.03) rotate(-73.45)"/><ellipse class="cls-17" cx="187.9" cy="152.11" rx="0.04" ry="0.12" transform="translate(-29.7 257.45) rotate(-64.82)"/><ellipse class="cls-17" cx="185.31" cy="151.87" rx="0.12" ry="0.04" transform="translate(-48.97 101.71) rotate(-27.25)"/><ellipse class="cls-16" cx="183.12" cy="149.37" rx="0.04" ry="0.12" transform="translate(-21.85 31.76) rotate(-9.36)"/><ellipse class="cls-16" cx="183.18" cy="151.47" rx="3.02" ry="3.1"/><ellipse class="cls-7" cx="182.88" cy="151.67" rx="2.65" ry="2.73"/><ellipse class="cls-16" cx="182.87" cy="152.88" rx="0.12" ry="0.04" transform="translate(15.61 322.7) rotate(-85.33)"/><ellipse class="cls-16" cx="182.98" cy="150.96" rx="0.04" ry="0.12" transform="translate(-14.04 18.85) rotate(-5.68)"/><ellipse class="cls-16" cx="183.23" cy="149.49" rx="0.04" ry="0.12" transform="translate(-13.47 18.23) rotate(-5.49)"/><ellipse class="cls-16" cx="183.85" cy="151.88" rx="0.04" ry="0.12" transform="translate(-22.66 32.62) rotate(-9.55)"/><ellipse class="cls-16" cx="184.19" cy="150.27" rx="0.04" ry="0.12" transform="translate(-22.02 32.01) rotate(-9.38)"/><ellipse class="cls-16" cx="183.89" cy="153.62" rx="0.12" ry="0.04" transform="translate(-29.2 263.18) rotate(-67.08)"/><ellipse class="cls-16" cx="184.94" cy="152.22" rx="0.12" ry="0.04" transform="translate(-5.36 297.68) rotate(-76.85)"/><ellipse class="cls-16" cx="181.99" cy="151.98" rx="0.12" ry="0.04" transform="translate(15.96 321.26) rotate(-85.42)"/><ellipse class="cls-16" cx="182.19" cy="150.03" rx="0.12" ry="0.04" transform="translate(18.98 320.51) rotate(-85.72)"/><ellipse class="cls-16" cx="180.89" cy="151.09" rx="0.12" ry="0.04" transform="translate(16.27 319.75) rotate(-85.57)"/><ellipse class="cls-16" cx="181.8" cy="153.62" rx="0.12" ry="0.04" transform="translate(14.38 322.79) rotate(-85.49)"/><ellipse class="cls-17" cx="185.78" cy="150.84" rx="0.04" ry="0.12" transform="translate(-46.39 92.83) rotate(-25.05)"/><ellipse class="cls-17" cx="185.18" cy="153.49" rx="0.12" ry="0.04" transform="translate(-15.17 286.58) rotate(-73.25)"/><ellipse class="cls-17" cx="185.94" cy="151.76" rx="0.12" ry="0.04" transform="translate(-12.51 286.76) rotate(-73.45)"/><ellipse class="cls-17" cx="184.58" cy="149.19" rx="0.04" ry="0.12" transform="translate(-28.79 253.11) rotate(-64.92)"/><ellipse class="cls-17" cx="181.99" cy="148.95" rx="0.12" ry="0.04" transform="translate(-47.85 99.16) rotate(-27.08)"/><ellipse class="cls-16" cx="189.9" cy="149.37" rx="0.04" ry="0.12" transform="translate(-21.92 33.15) rotate(-9.43)"/><ellipse class="cls-16" cx="189.97" cy="151.47" rx="3.02" ry="3.1"/><ellipse class="cls-7" cx="189.66" cy="151.67" rx="2.65" ry="2.73"/><ellipse class="cls-16" cx="189.65" cy="152.88" rx="0.12" ry="0.04" transform="translate(21.91 329.53) rotate(-85.35)"/><ellipse class="cls-16" cx="189.76" cy="150.96" rx="0.04" ry="0.12" transform="translate(-13.99 19.49) rotate(-5.67)"/><ellipse class="cls-16" cx="190.02" cy="149.49" rx="0.04" ry="0.12" transform="translate(-13.5 18.97) rotate(-5.52)"/><ellipse class="cls-16" cx="190.63" cy="151.88" rx="0.04" ry="0.12" transform="translate(-22.47 33.57) rotate(-9.51)"/><ellipse class="cls-16" cx="190.97" cy="150.27" rx="0.04" ry="0.12" transform="translate(-21.96 33.18) rotate(-9.39)"/><ellipse class="cls-16" cx="190.68" cy="153.62" rx="0.12" ry="0.04" transform="translate(-25.06 269.42) rotate(-67.08)"/><ellipse class="cls-16" cx="191.72" cy="152.22" rx="0.12" ry="0.04" transform="translate(-0.24 304.14) rotate(-76.81)"/><ellipse class="cls-16" cx="188.77" cy="151.98" rx="0.12" ry="0.04" transform="translate(22.27 328.08) rotate(-85.44)"/><ellipse class="cls-16" cx="188.97" cy="150.03" rx="0.12" ry="0.04" transform="translate(25.21 327.23) rotate(-85.7)"/><ellipse class="cls-16" cx="187.67" cy="151.09" rx="0.12" ry="0.04" transform="translate(22.55 326.54) rotate(-85.57)"/><ellipse class="cls-16" cx="188.58" cy="153.62" rx="0.12" ry="0.04" transform="translate(20.76 329.67) rotate(-85.54)"/><ellipse class="cls-17" cx="192.56" cy="150.84" rx="0.04" ry="0.12" transform="translate(-45.64 95.22) rotate(-24.93)"/><ellipse class="cls-17" cx="191.96" cy="153.49" rx="0.12" ry="0.04" transform="translate(-10.61 292.69) rotate(-73.14)"/><ellipse class="cls-17" cx="192.72" cy="151.76" rx="0.12" ry="0.04" transform="matrix(0.28, -0.96, 0.96, 0.28, -7.46, 293.54)"/><ellipse class="cls-17" cx="191.36" cy="149.19" rx="0.04" ry="0.12" transform="translate(-24.72 259.57) rotate(-65)"/><ellipse class="cls-17" cx="188.77" cy="148.95" rx="0.12" ry="0.04" transform="translate(-47.43 103.93) rotate(-27.48)"/><ellipse class="cls-16" cx="188.54" cy="145.96" rx="0.04" ry="0.12" transform="translate(-21.47 33.05) rotate(-9.48)"/><ellipse class="cls-16" cx="188.61" cy="148.06" rx="3.02" ry="3.1"/><ellipse class="cls-7" cx="188.3" cy="148.26" rx="2.65" ry="2.73"/><ellipse class="cls-16" cx="188.29" cy="149.47" rx="0.12" ry="0.04" transform="translate(23.74 324.73) rotate(-85.25)"/><ellipse class="cls-16" cx="188.4" cy="147.55" rx="0.04" ry="0.12" transform="translate(-14.2 20.2) rotate(-5.91)"/><ellipse class="cls-16" cx="188.66" cy="146.08" rx="0.04" ry="0.12" transform="matrix(1, -0.1, 0.1, 1, -13.35, 19.11)"/><ellipse class="cls-16" cx="189.27" cy="148.47" rx="0.04" ry="0.12" transform="translate(-22.08 33.59) rotate(-9.59)"/><ellipse class="cls-16" cx="189.61" cy="146.85" rx="0.04" ry="0.12" transform="translate(-21.81 33.63) rotate(-9.59)"/><ellipse class="cls-16" cx="189.31" cy="150.2" rx="0.12" ry="0.04" transform="translate(-22.55 266.45) rotate(-67.18)"/><ellipse class="cls-16" cx="190.36" cy="148.81" rx="0.12" ry="0.04" transform="translate(1.83 299.92) rotate(-76.73)"/><ellipse class="cls-16" cx="187.41" cy="148.57" rx="0.12" ry="0.04" transform="matrix(0.08, -1, 1, 0.08, 25.03, 324.15)"/><ellipse class="cls-16" cx="187.61" cy="146.61" rx="0.12" ry="0.04" transform="translate(26.81 322.21) rotate(-85.53)"/><ellipse class="cls-16" cx="186.31" cy="147.67" rx="0.12" ry="0.04" transform="translate(24.4 321.75) rotate(-85.48)"/><ellipse class="cls-16" cx="187.22" cy="150.2" rx="0.12" ry="0.04" transform="translate(23.22 325.46) rotate(-85.64)"/><ellipse class="cls-17" cx="191.2" cy="147.43" rx="0.04" ry="0.12" transform="translate(-44.26 94.01) rotate(-24.85)"/><ellipse class="cls-17" cx="190.6" cy="150.08" rx="0.12" ry="0.04" transform="translate(-7.74 289.77) rotate(-73.37)"/><ellipse class="cls-17" cx="191.36" cy="148.35" rx="0.12" ry="0.04" transform="translate(-5.21 289.72) rotate(-73.51)"/><ellipse class="cls-17" cx="190" cy="145.77" rx="0.04" ry="0.12" transform="translate(-22.26 256.66) rotate(-65.08)"/><ellipse class="cls-17" cx="187.41" cy="145.53" rx="0.12" ry="0.04" transform="translate(-46.06 103.16) rotate(-27.54)"/><ellipse class="cls-16" cx="184.63" cy="145.43" rx="0.04" ry="0.12" transform="translate(-21.49 32.5) rotate(-9.51)"/><ellipse class="cls-16" cx="184.7" cy="147.53" rx="3.02" ry="3.1"/><ellipse class="cls-7" cx="184.4" cy="147.73" rx="2.65" ry="2.73"/><ellipse class="cls-16" cx="184.39" cy="148.94" rx="0.12" ry="0.04" transform="translate(20.93 320.59) rotate(-85.33)"/><ellipse class="cls-16" cx="184.49" cy="147.02" rx="0.04" ry="0.12" transform="matrix(0.99, -0.1, 0.1, 0.99, -13.91, 19.39)"/><ellipse class="cls-16" cx="184.75" cy="145.55" rx="0.04" ry="0.12" transform="translate(-13.28 18.66) rotate(-5.58)"/><ellipse class="cls-16" cx="185.36" cy="147.94" rx="0.04" ry="0.12" transform="translate(-21.98 32.81) rotate(-9.55)"/><ellipse class="cls-16" cx="185.7" cy="146.32" rx="0.04" ry="0.12" transform="translate(-21.71 32.86) rotate(-9.56)"/><ellipse class="cls-16" cx="185.41" cy="149.67" rx="0.12" ry="0.04" transform="translate(-24.62 262.21) rotate(-67.1)"/><ellipse class="cls-16" cx="186.45" cy="148.28" rx="0.12" ry="0.04" transform="translate(-0.16 296.35) rotate(-76.93)"/><ellipse class="cls-16" cx="183.51" cy="148.04" rx="0.12" ry="0.04" transform="translate(21.5 319.34) rotate(-85.49)"/><ellipse class="cls-16" cx="183.71" cy="146.08" rx="0.12" ry="0.04" transform="translate(23.59 317.69) rotate(-85.48)"/><ellipse class="cls-16" cx="182.4" cy="147.14" rx="0.12" ry="0.04" transform="translate(21.5 317.53) rotate(-85.53)"/><ellipse class="cls-16" cx="183.32" cy="149.67" rx="0.12" ry="0.04" transform="translate(19.87 320.81) rotate(-85.55)"/><ellipse class="cls-17" cx="187.3" cy="146.9" rx="0.04" ry="0.12" transform="translate(-44.42 92.43) rotate(-24.88)"/><ellipse class="cls-17" cx="186.7" cy="149.55" rx="0.12" ry="0.04" transform="translate(-10.02 285.64) rotate(-73.37)"/><ellipse class="cls-17" cx="187.46" cy="147.82" rx="0.12" ry="0.04" transform="translate(-7.6 285.45) rotate(-73.46)"/><ellipse class="cls-17" cx="186.09" cy="145.24" rx="0.04" ry="0.12" transform="translate(-24.61 251.69) rotate(-64.78)"/><ellipse class="cls-17" cx="183.51" cy="145" rx="0.12" ry="0.04" transform="translate(-46.02 100.07) rotate(-27.24)"/><ellipse class="cls-16" cx="185.63" cy="149.79" rx="0.04" ry="0.12" transform="translate(-22.35 33.01) rotate(-9.59)"/><ellipse class="cls-16" cx="185.69" cy="151.89" rx="3.02" ry="3.1"/><ellipse class="cls-7" cx="185.39" cy="152.09" rx="2.65" ry="2.73"/><ellipse class="cls-16" cx="185.38" cy="153.3" rx="0.12" ry="0.04" transform="translate(17.34 325.44) rotate(-85.28)"/><ellipse class="cls-16" cx="185.49" cy="151.38" rx="0.04" ry="0.12" transform="translate(-14.41 19.61) rotate(-5.83)"/><ellipse class="cls-16" cx="185.74" cy="149.91" rx="0.04" ry="0.12" transform="translate(-13.29 18.16) rotate(-5.4)"/><ellipse class="cls-16" cx="186.36" cy="152.3" rx="0.04" ry="0.12" transform="translate(-22.56 32.81) rotate(-9.49)"/><ellipse class="cls-16" cx="186.7" cy="150.69" rx="0.04" ry="0.12" transform="translate(-22.16 32.61) rotate(-9.42)"/><ellipse class="cls-16" cx="186.4" cy="154.04" rx="0.12" ry="0.04" transform="translate(-27.64 266.55) rotate(-67.3)"/><ellipse class="cls-16" cx="187.45" cy="152.64" rx="0.12" ry="0.04" transform="translate(-4.33 299.81) rotate(-76.66)"/><ellipse class="cls-16" cx="184.5" cy="152.4" rx="0.12" ry="0.04" transform="translate(18.34 324.61) rotate(-85.58)"/><ellipse class="cls-16" cx="184.7" cy="150.45" rx="0.12" ry="0.04" transform="translate(20.25 322.8) rotate(-85.51)"/><ellipse class="cls-16" cx="183.4" cy="151.51" rx="0.12" ry="0.04" transform="translate(17.56 322.05) rotate(-85.36)"/><ellipse class="cls-16" cx="184.31" cy="154.04" rx="0.12" ry="0.04" transform="translate(16.43 325.83) rotate(-85.55)"/><ellipse class="cls-17" cx="188.29" cy="151.26" rx="0.04" ry="0.12" transform="translate(-46.25 93.6) rotate(-24.96)"/><ellipse class="cls-17" cx="187.69" cy="153.91" rx="0.12" ry="0.04" transform="translate(-13.54 289.65) rotate(-73.35)"/><ellipse class="cls-17" cx="188.45" cy="152.18" rx="0.12" ry="0.04" transform="translate(-11.01 289.62) rotate(-73.49)"/><ellipse class="cls-17" cx="187.09" cy="149.61" rx="0.04" ry="0.12" transform="translate(-27.81 255.46) rotate(-64.87)"/><ellipse class="cls-17" cx="184.5" cy="149.37" rx="0.12" ry="0.04" transform="translate(-47.68 99.92) rotate(-26.97)"/><polygon class="cls-18" points="221.55 130.3 236.65 122.14 236.77 140.73 221.6 148.57 221.55 130.3"/><polygon class="cls-19" points="221.55 125.37 236.81 117.55 236.71 113.89 244.64 117.82 221.55 130.3 221.55 125.37"/></g></g></svg>