<?xml version="1.0" encoding="utf-8"?>
<!-- Generator: Adobe Illustrator 23.0.5, SVG Export Plug-In . SVG Version: 6.00 Build 0)  -->
<svg version="1.1" id="Layer_1" xmlns="http://www.w3.org/2000/svg" xmlns:xlink="http://www.w3.org/1999/xlink" x="0px" y="0px"
	 viewBox="0 0 595.28 841.89" style="enable-background:new 0 0 595.28 841.89;" xml:space="preserve">
<style type="text/css">
	.st0{fill:#F89822;}
	.st1{fill:#FFFFFF;stroke:#000000;stroke-miterlimit:10;}
</style>
<g>
	<path class="st0" d="M233.08,278.11c-18.26,5.92-35.98,13.53-52.84,22.7c-7.25,3.95-14.61,8.43-19.07,15.38
		c-4.45,6.95-5.06,17.04,0.75,22.91c3.84,3.88,9.56,5.16,14.99,5.66c9.5,0.87,19.3-0.13,28.41,2.69
		c9.11,2.82,17.62,11.21,16.22,20.65c-0.75,5.01-4.16,9.89-2.67,14.73c2.4,7.78,13.5,6.94,21.06,9.95
		c7.35,2.93,12.12,11.14,11.32,19.01c-0.8,7.87-6.92,14.85-14.54,16.96c8.9,3.53,11.54,14.83,11.42,24.4s-1.54,19.95,3.61,28.01
		c2.67,4.17,6.81,7.16,11.04,9.73c35.76,21.68,85.47,17.08,116.65-10.8c13.78-12.32,23.8-28.26,32.55-44.54
		c15.86-29.49,28.27-61.24,32.42-94.46c0.94-7.48,1.44-15.14-0.15-22.51c-1.95-9.02-6.94-17.1-12.71-24.3
		c-35.58-44.43-98.83-56.97-155.46-51.25c-13.17,1.33-26.65,3.61-37.91,10.57c-11.26,6.95-19.89,19.57-18.65,32.74"/>
</g>
<path class="st1" d="M249.31,290.77c9.57-6.74,22.45-8.52,33.49-4.63c3.53,1.24,7,3.14,9.08,6.24c1.61,2.4,2.25,5.3,2.84,8.13
	c0.28,1.35,0.47,3-0.58,3.89c-0.68,0.57-1.65,0.61-2.53,0.61c-4.47,0.04-8.95,0.07-13.42,0.11c-2.64,0.02-5.32,0.04-7.85-0.71
	c-2.1-0.62-4.02-1.75-5.87-2.92c-4.62-2.93-9.02-6.22-13.14-9.82"/>
<g>
	<path d="M272.58,285.67c-0.42,1.48-1.28,2.78-1.84,4.22c-0.55,1.43-0.76,3.15,0.08,4.43c0.42,0.64,1.06,1.1,1.73,1.46
		c2.44,1.32,5.49,1.44,8.03,0.32c2.54-1.12,4.5-3.46,5.17-6.15"/>
</g>
<g>
	<path d="M230.62,238.29c11.7,23.25,35.94,28.37,57.32,30.84c21.38,2.47,45.48,6.29,58.39,28.45c9.38,16.12,10.13,37.67,14.21,57.14
		c2.42,11.56,6.13,22.66,10.98,32.87c3.59,7.57,8.5,15.21,15.29,16.55c8.01,1.59,15.29-6.09,23.27-7.85
		c6.78-1.49,14.07,1.65,18.8,8.1c3.88,5.3,6.13,12.62,10.78,16.74c7.72,6.83,18.98,1.46,24.57-8.23c5.59-9.69,6.98-22.26,8.2-34.24
		c2.34-23.05,4.44-47.87-4.09-68.33c-4.95-11.86-13-20.96-20.88-29.79c-17.01-19.06-34.43-38.45-55.31-49.33
		c-18.16-9.46-37.96-11.96-57.45-14.37c-18.2-2.25-36.96-4.43-54.46,2.4c-16.24,6.34-31.9,20.41-48.59,16.43"/>
</g>
</svg>
